Roboto Serif Text-Hairline Italic.ufo
<glyph name="exclam" format="1">
  <advance width="245"/>
  <unicode hex="0021"/>
  <outline>
    <contour>
      <point x="230" y="710" type="curve"/>
      <point x="180" y="710" type="line"/>
      <point x="150" y="540"/>
      <point x="141" y="430"/>
      <point x="95" y="170" type="curve"/>
      <point x="123" y="170" type="line"/>
      <point x="169" y="430"/>
      <point x="200" y="541"/>
    </contour>
    <contour>
      <point x="128" y="27" type="curve" smooth="yes"/>
      <point x="128" y="50"/>
      <point x="112" y="64"/>
      <point x="90" y="64" type="curve" smooth="yes"/>
      <point x="68" y="64"/>
      <point x="52" y="50"/>
      <point x="52" y="27" type="curve" smooth="yes"/>
      <point x="52" y="4"/>
      <point x="68" y="-10"/>
      <point x="90" y="-10" type="curve" smooth="yes"/>
      <point x="112" y="-10"/>
      <point x="128" y="4"/>
    </contour>
  </outline>
</glyph>
<glyph name="dollar" format="1">
  <advance width="560"/>
  <unicode hex="0024"/>
  <outline>
    <contour>
      <point x="262" y="8" type="curve" smooth="yes"/>
      <point x="392" y="8"/>
      <point x="490" y="74"/>
      <point x="490" y="198" type="curve" smooth="yes"/>
      <point x="490" y="299"/>
      <point x="399" y="339"/>
      <point x="323" y="374" type="curve" smooth="yes"/>
      <point x="319" y="376" type="line"/>
      <point x="371" y="667" type="line"/>
      <point x="417" y="664"/>
      <point x="461" y="654"/>
      <point x="491" y="634" type="curve"/>
      <point x="477" y="553" type="line"/>
      <point x="527" y="553" type="line"/>
      <point x="543" y="644" type="line"/>
      <point x="512" y="668"/>
      <point x="456" y="691"/>
      <point x="376" y="697" type="curve"/>
      <point x="392" y="787" type="line"/>
      <point x="356" y="787" type="line"/>
      <point x="340" y="698" type="line"/>
      <point x="339" y="698" type="line" smooth="yes"/>
      <point x="202" y="698"/>
      <point x="120" y="634"/>
      <point x="120" y="531" type="curve" smooth="yes"/>
      <point x="120" y="431"/>
      <point x="200" y="392"/>
      <point x="273" y="356" type="curve" smooth="yes"/>
      <point x="275" y="355"/>
      <point x="277" y="354"/>
      <point x="279" y="353" type="curve"/>
      <point x="224" y="40" type="line"/>
      <point x="155" y="45"/>
      <point x="98" y="64"/>
      <point x="60" y="99" type="curve"/>
      <point x="75" y="184" type="line"/>
      <point x="27" y="184" type="line"/>
      <point x="11" y="96" type="line"/>
      <point x="46" y="59"/>
      <point x="114" y="19"/>
      <point x="219" y="10" type="curve"/>
      <point x="196" y="-120" type="line"/>
      <point x="232" y="-120" type="line"/>
      <point x="255" y="8" type="line"/>
      <point x="257" y="8"/>
      <point x="260" y="8"/>
    </contour>
    <contour>
      <point x="156" y="534" type="curve" smooth="yes"/>
      <point x="156" y="615"/>
      <point x="218" y="668"/>
      <point x="335" y="668" type="curve" smooth="yes"/>
      <point x="335" y="668" type="line"/>
      <point x="286" y="391" type="line"/>
      <point x="215" y="424"/>
      <point x="156" y="458"/>
    </contour>
    <contour>
      <point x="453" y="195" type="curve" smooth="yes"/>
      <point x="453" y="91"/>
      <point x="378" y="38"/>
      <point x="267" y="38" type="curve" smooth="yes"/>
      <point x="265" y="38"/>
      <point x="262" y="38"/>
      <point x="260" y="38" type="curve"/>
      <point x="313" y="338" type="line"/>
      <point x="386" y="304"/>
      <point x="453" y="273"/>
    </contour>
  </outline>
</glyph>
<glyph name="ampersand" format="1">
  <advance width="697"/>
  <unicode hex="0026"/>
  <outline>
    <contour>
      <point x="645" y="0" type="line"/>
      <point x="651" y="30" type="line"/>
      <point x="632" y="30" type="line" smooth="yes"/>
      <point x="587" y="30"/>
      <point x="563" y="39"/>
      <point x="525" y="80" type="curve" smooth="yes"/>
      <point x="512" y="94"/>
      <point x="500" y="107"/>
      <point x="488" y="121" type="curve"/>
      <point x="538" y="188"/>
      <point x="567" y="269"/>
      <point x="585" y="326" type="curve" smooth="yes"/>
      <point x="596" y="359"/>
      <point x="626" y="364"/>
      <point x="670" y="364" type="curve" smooth="yes"/>
      <point x="672" y="364" type="line"/>
      <point x="677" y="394" type="line"/>
      <point x="487" y="394" type="line"/>
      <point x="482" y="364" type="line"/>
      <point x="484" y="364" type="line" smooth="yes"/>
      <point x="512" y="364"/>
      <point x="555" y="361"/>
      <point x="555" y="355" type="curve"/>
      <point x="545" y="293"/>
      <point x="517" y="210"/>
      <point x="468" y="143" type="curve"/>
      <point x="383" y="241"/>
      <point x="328" y="322"/>
      <point x="298" y="398" type="curve"/>
      <point x="421" y="428"/>
      <point x="522" y="490"/>
      <point x="522" y="598" type="curve"/>
      <point x="522" y="672"/>
      <point x="471" y="718"/>
      <point x="394" y="718" type="curve" smooth="yes"/>
      <point x="298" y="718"/>
      <point x="231" y="644"/>
      <point x="231" y="533" type="curve" smooth="yes"/>
      <point x="231" y="493"/>
      <point x="238" y="453"/>
      <point x="251" y="413" type="curve"/>
      <point x="139" y="383"/>
      <point x="49" y="321"/>
      <point x="49" y="196" type="curve" smooth="yes"/>
      <point x="49" y="76"/>
      <point x="129" y="-3"/>
      <point x="260" y="-3" type="curve" smooth="yes"/>
      <point x="347" y="-3"/>
      <point x="412" y="35"/>
      <point x="461" y="88" type="curve"/>
      <point x="486" y="59"/>
      <point x="512" y="30"/>
      <point x="540" y="0" type="curve"/>
    </contour>
    <contour>
      <point x="271" y="533" type="curve" smooth="yes"/>
      <point x="271" y="629"/>
      <point x="321" y="688"/>
      <point x="394" y="688" type="curve"/>
      <point x="451" y="688"/>
      <point x="482" y="650"/>
      <point x="482" y="598" type="curve"/>
      <point x="482" y="496"/>
      <point x="406" y="453"/>
      <point x="289" y="423" type="curve"/>
      <point x="277" y="460"/>
      <point x="271" y="497"/>
    </contour>
    <contour>
      <point x="89" y="196" type="curve" smooth="yes"/>
      <point x="89" y="306"/>
      <point x="157" y="356"/>
      <point x="260" y="388" type="curve"/>
      <point x="296" y="297"/>
      <point x="360" y="205"/>
      <point x="441" y="110" type="curve"/>
      <point x="395" y="61"/>
      <point x="335" y="27"/>
      <point x="260" y="27" type="curve" smooth="yes"/>
      <point x="150" y="27"/>
      <point x="89" y="94"/>
    </contour>
  </outline>
</glyph>
<glyph name="comma" format="1">
  <advance width="195"/>
  <unicode hex="002C"/>
  <outline>
    <contour>
      <point x="26" y="-122" type="line"/>
      <point x="97" y="-83"/>
      <point x="127" y="-16"/>
      <point x="127" y="20" type="curve" smooth="yes"/>
      <point x="127" y="48"/>
      <point x="111" y="64"/>
      <point x="87" y="64" type="curve" smooth="yes"/>
      <point x="63" y="64"/>
      <point x="47" y="47"/>
      <point x="47" y="26" type="curve" smooth="yes"/>
      <point x="47" y="4"/>
      <point x="63" y="-10"/>
      <point x="83" y="-10" type="curve" smooth="yes"/>
      <point x="88" y="-10"/>
      <point x="92" y="-9"/>
      <point x="96" y="-8" type="curve"/>
      <point x="86" y="-37"/>
      <point x="53" y="-81"/>
      <point x="2" y="-103" type="curve"/>
    </contour>
  </outline>
</glyph>
<glyph name="two" format="1">
  <advance width="560"/>
  <unicode hex="0032"/>
  <outline>
    <contour>
      <point x="3" y="0" type="line"/>
      <point x="456" y="0" type="line"/>
      <point x="483" y="165" type="line"/>
      <point x="456" y="165" type="line"/>
      <point x="432" y="80" type="line" smooth="yes"/>
      <point x="422" y="44"/>
      <point x="386" y="37"/>
      <point x="299" y="37" type="curve" smooth="yes"/>
      <point x="58" y="37" type="line"/>
      <point x="281" y="154"/>
      <point x="503" y="284"/>
      <point x="503" y="453" type="curve" smooth="yes"/>
      <point x="503" y="566"/>
      <point x="422" y="618"/>
      <point x="309" y="618" type="curve" smooth="yes"/>
      <point x="219" y="618"/>
      <point x="151" y="578"/>
      <point x="113" y="549" type="curve"/>
      <point x="96" y="453" type="line"/>
      <point x="144" y="453" type="line"/>
      <point x="158" y="538" type="line"/>
      <point x="199" y="567"/>
      <point x="246" y="588"/>
      <point x="309" y="588" type="curve" smooth="yes"/>
      <point x="399" y="588"/>
      <point x="460" y="548"/>
      <point x="460" y="453" type="curve" smooth="yes"/>
      <point x="460" y="294"/>
      <point x="267" y="183"/>
      <point x="10" y="42" type="curve"/>
    </contour>
  </outline>
</glyph>
<glyph name="five" format="1">
  <advance width="560"/>
  <unicode hex="0035"/>
  <outline>
    <contour>
      <point x="249" y="-90" type="curve" smooth="yes"/>
      <point x="404" y="-90"/>
      <point x="504" y="23"/>
      <point x="504" y="166" type="curve" smooth="yes"/>
      <point x="504" y="279"/>
      <point x="432" y="366"/>
      <point x="305" y="366" type="curve" smooth="yes"/>
      <point x="237" y="366"/>
      <point x="180" y="340"/>
      <point x="135" y="290" type="curve"/>
      <point x="186" y="572" type="line"/>
      <point x="509" y="572" type="line"/>
      <point x="524" y="609" type="line"/>
      <point x="161" y="609" type="line"/>
      <point x="95" y="240" type="line"/>
      <point x="121" y="240" type="line"/>
      <point x="168" y="305"/>
      <point x="224" y="336"/>
      <point x="305" y="336" type="curve" smooth="yes"/>
      <point x="406" y="336"/>
      <point x="461" y="267"/>
      <point x="461" y="166" type="curve" smooth="yes"/>
      <point x="461" y="38"/>
      <point x="381" y="-60"/>
      <point x="249" y="-60" type="curve" smooth="yes"/>
      <point x="139" y="-60"/>
      <point x="74" y="11"/>
      <point x="51" y="83" type="curve"/>
      <point x="24" y="62" type="line"/>
      <point x="49" y="-19"/>
      <point x="126" y="-90"/>
    </contour>
  </outline>
</glyph>
<glyph name="eight" format="1">
  <advance width="560"/>
  <unicode hex="0038"/>
  <outline>
    <contour>
      <point x="42" y="187" type="curve" smooth="yes"/>
      <point x="42" y="74"/>
      <point x="141" y="-10"/>
      <point x="270" y="-10" type="curve" smooth="yes"/>
      <point x="406" y="-10"/>
      <point x="504" y="80"/>
      <point x="504" y="197" type="curve" smooth="yes"/>
      <point x="504" y="273"/>
      <point x="454" y="343"/>
      <point x="369" y="373" type="curve"/>
      <point x="463" y="391"/>
      <point x="529" y="461"/>
      <point x="529" y="551" type="curve" smooth="yes"/>
      <point x="529" y="648"/>
      <point x="446" y="720"/>
      <point x="342" y="720" type="curve" smooth="yes"/>
      <point x="219" y="720"/>
      <point x="136" y="637"/>
      <point x="136" y="535" type="curve" smooth="yes"/>
      <point x="136" y="463"/>
      <point x="181" y="410"/>
      <point x="240" y="385" type="curve"/>
      <point x="116" y="370"/>
      <point x="42" y="284"/>
    </contour>
    <contour>
      <point x="321" y="391" type="curve" smooth="yes"/>
      <point x="247" y="391"/>
      <point x="177" y="444"/>
      <point x="177" y="535" type="curve" smooth="yes"/>
      <point x="177" y="544"/>
      <point x="178" y="552"/>
      <point x="180" y="562" type="curve" smooth="yes"/>
      <point x="196" y="648"/>
      <point x="262" y="690"/>
      <point x="342" y="690" type="curve" smooth="yes"/>
      <point x="424" y="690"/>
      <point x="488" y="635"/>
      <point x="488" y="551" type="curve" smooth="yes"/>
      <point x="488" y="541"/>
      <point x="487" y="528"/>
      <point x="485" y="517" type="curve" smooth="yes"/>
      <point x="470" y="433"/>
      <point x="398" y="391"/>
    </contour>
    <contour>
      <point x="270" y="20" type="curve" smooth="yes"/>
      <point x="162" y="20"/>
      <point x="85" y="90"/>
      <point x="85" y="187" type="curve" smooth="yes"/>
      <point x="85" y="198"/>
      <point x="86" y="208"/>
      <point x="88" y="219" type="curve" smooth="yes"/>
      <point x="105" y="313"/>
      <point x="181" y="361"/>
      <point x="279" y="361" type="curve"/>
      <point x="396" y="361"/>
      <point x="461" y="290"/>
      <point x="461" y="197" type="curve" smooth="yes"/>
      <point x="461" y="186"/>
      <point x="459" y="168"/>
      <point x="455" y="154" type="curve" smooth="yes"/>
      <point x="430" y="67"/>
      <point x="367" y="20"/>
    </contour>
  </outline>
</glyph>
<glyph name="colon" format="1">
  <advance width="244"/>
  <unicode hex="003A"/>
  <outline>
    <contour>
      <point x="208" y="435" type="curve" smooth="yes"/>
      <point x="208" y="458"/>
      <point x="192" y="472"/>
      <point x="170" y="472" type="curve" smooth="yes"/>
      <point x="148" y="472"/>
      <point x="132" y="458"/>
      <point x="132" y="435" type="curve" smooth="yes"/>
      <point x="132" y="412"/>
      <point x="148" y="398"/>
      <point x="170" y="398" type="curve" smooth="yes"/>
      <point x="192" y="398"/>
      <point x="208" y="412"/>
    </contour>
    <contour>
      <point x="136" y="27" type="curve" smooth="yes"/>
      <point x="136" y="50"/>
      <point x="120" y="64"/>
      <point x="98" y="64" type="curve" smooth="yes"/>
      <point x="76" y="64"/>
      <point x="60" y="50"/>
      <point x="60" y="27" type="curve" smooth="yes"/>
      <point x="60" y="4"/>
      <point x="76" y="-10"/>
      <point x="98" y="-10" type="curve" smooth="yes"/>
      <point x="120" y="-10"/>
      <point x="136" y="4"/>
    </contour>
  </outline>
</glyph>
<glyph name="less" format="1">
  <advance width="560"/>
  <unicode hex="003C"/>
  <outline>
    <contour>
      <point x="439" y="133" type="line"/>
      <point x="446" y="169" type="line"/>
      <point x="139" y="330" type="line"/>
      <point x="487" y="491" type="line"/>
      <point x="494" y="529" type="line"/>
      <point x="112" y="352" type="line"/>
      <point x="104" y="310" type="line"/>
    </contour>
  </outline>
</glyph>
<glyph name="at" format="1">
  <advance width="892"/>
  <unicode hex="0040"/>
  <outline>
    <contour>
      <point x="398" y="49" type="curve" smooth="yes"/>
      <point x="445" y="49"/>
      <point x="481" y="75"/>
      <point x="520" y="126" type="curve"/>
      <point x="524" y="87"/>
      <point x="552" y="53"/>
      <point x="624" y="53" type="curve" smooth="yes"/>
      <point x="750" y="53"/>
      <point x="862" y="182"/>
      <point x="862" y="349" type="curve" smooth="yes"/>
      <point x="862" y="539"/>
      <point x="722" y="673"/>
      <point x="504" y="673" type="curve" smooth="yes"/>
      <point x="253" y="673"/>
      <point x="45" y="478"/>
      <point x="45" y="224" type="curve" smooth="yes"/>
      <point x="45" y="-46"/>
      <point x="252" y="-153"/>
      <point x="447" y="-153" type="curve" smooth="yes"/>
      <point x="545" y="-153"/>
      <point x="617" y="-129"/>
      <point x="666" y="-106" type="curve"/>
      <point x="661" y="-80" type="line"/>
      <point x="610" y="-102"/>
      <point x="543" y="-125"/>
      <point x="447" y="-125" type="curve" smooth="yes"/>
      <point x="267" y="-125"/>
      <point x="75" y="-25"/>
      <point x="75" y="224" type="curve" smooth="yes"/>
      <point x="75" y="462"/>
      <point x="267" y="646"/>
      <point x="504" y="646" type="curve" smooth="yes"/>
      <point x="707" y="646"/>
      <point x="832" y="522"/>
      <point x="832" y="349" type="curve" smooth="yes"/>
      <point x="832" y="203"/>
      <point x="744" y="76"/>
      <point x="624" y="76" type="curve" smooth="yes"/>
      <point x="577" y="76"/>
      <point x="556" y="97"/>
      <point x="556" y="133" type="curve" smooth="yes"/>
      <point x="556" y="152"/>
      <point x="559" y="166"/>
      <point x="565" y="184" type="curve" smooth="yes"/>
      <point x="654" y="468" type="line"/>
      <point x="632" y="468" type="line"/>
      <point x="599" y="404" type="line"/>
      <point x="583" y="447"/>
      <point x="545" y="474"/>
      <point x="492" y="474" type="curve" smooth="yes"/>
      <point x="369" y="474"/>
      <point x="268" y="335"/>
      <point x="268" y="196" type="curve" smooth="yes"/>
      <point x="268" y="103"/>
      <point x="321" y="49"/>
    </contour>
    <contour>
      <point x="308" y="196" type="curve" smooth="yes"/>
      <point x="308" y="323"/>
      <point x="387" y="447"/>
      <point x="492" y="447" type="curve" smooth="yes"/>
      <point x="538" y="447"/>
      <point x="568" y="427"/>
      <point x="585" y="371" type="curve"/>
      <point x="518" y="160" type="line"/>
      <point x="479" y="106"/>
      <point x="444" y="76"/>
      <point x="398" y="76" type="curve" smooth="yes"/>
      <point x="341" y="76"/>
      <point x="308" y="118"/>
    </contour>
  </outline>
</glyph>
<glyph name="G" format="1">
  <advance width="730"/>
  <unicode hex="0047"/>
  <outline>
    <contour>
      <point x="406" y="690" type="curve" smooth="yes"/>
      <point x="536" y="690"/>
      <point x="584" y="609"/>
      <point x="614" y="506" type="curve"/>
      <point x="646" y="506" type="line"/>
      <point x="682" y="710" type="line"/>
      <point x="656" y="710" type="line"/>
      <point x="621" y="574" type="line"/>
      <point x="594" y="645"/>
      <point x="534" y="720"/>
      <point x="406" y="720" type="curve" smooth="yes"/>
      <point x="189" y="720"/>
      <point x="45" y="531"/>
      <point x="45" y="320" type="curve" smooth="yes"/>
      <point x="45" y="139"/>
      <point x="158" y="-10"/>
      <point x="361" y="-10" type="curve" smooth="yes"/>
      <point x="477" y="-10"/>
      <point x="555" y="50"/>
      <point x="591" y="81" type="curve"/>
      <point x="625" y="289" type="line"/>
      <point x="629" y="316"/>
      <point x="660" y="323"/>
      <point x="705" y="323" type="curve" smooth="yes"/>
      <point x="709" y="323" type="line"/>
      <point x="715" y="353" type="line"/>
      <point x="505" y="353" type="line"/>
      <point x="499" y="323" type="line"/>
      <point x="513" y="323" type="line" smooth="yes"/>
      <point x="567" y="323"/>
      <point x="594" y="313"/>
      <point x="590" y="287" type="curve"/>
      <point x="590" y="287" type="line"/>
      <point x="559" y="96" type="line"/>
      <point x="541" y="81"/>
      <point x="475" y="20"/>
      <point x="361" y="20" type="curve" smooth="yes"/>
      <point x="175" y="20"/>
      <point x="88" y="156"/>
      <point x="88" y="320" type="curve" smooth="yes"/>
      <point x="88" y="509"/>
      <point x="208" y="690"/>
    </contour>
    <contour>
      <point x="369.0" y="741.0" type="move" name="top"/>
    </contour>
    <contour>
      <point x="369.0" y="0.0" type="move" name="bottom"/>
    </contour>
  </outline>
</glyph>
<glyph name="M" format="1">
  <advance width="884"/>
  <unicode hex="004D"/>
  <outline>
    <contour>
      <point x="-15" y="0" type="line"/>
      <point x="202" y="0" type="line"/>
      <point x="207" y="30" type="line"/>
      <point x="203" y="30" type="line" smooth="yes"/>
      <point x="170" y="30"/>
      <point x="122" y="33"/>
      <point x="123" y="40" type="curve" smooth="yes"/>
      <point x="237" y="687" type="line"/>
      <point x="366" y="-2" type="line"/>
      <point x="397" y="-2" type="line"/>
      <point x="768" y="687" type="line"/>
      <point x="654" y="40" type="line" smooth="yes"/>
      <point x="653" y="33"/>
      <point x="613" y="30"/>
      <point x="576" y="30" type="curve" smooth="yes"/>
      <point x="567" y="30" type="line"/>
      <point x="562" y="0" type="line"/>
      <point x="784" y="0" type="line"/>
      <point x="789" y="30" type="line"/>
      <point x="778" y="30" type="line" smooth="yes"/>
      <point x="729" y="30"/>
      <point x="694" y="37"/>
      <point x="699" y="66" type="curve" smooth="yes"/>
      <point x="801" y="644" type="line" smooth="yes"/>
      <point x="806" y="673"/>
      <point x="843" y="680"/>
      <point x="892" y="680" type="curve" smooth="yes"/>
      <point x="903" y="680" type="line"/>
      <point x="909" y="710" type="line"/>
      <point x="744" y="710" type="line"/>
      <point x="394" y="56" type="line"/>
      <point x="276" y="710" type="line"/>
      <point x="110" y="710" type="line"/>
      <point x="104" y="680" type="line"/>
      <point x="115" y="680" type="line" smooth="yes"/>
      <point x="164" y="680"/>
      <point x="199" y="673"/>
      <point x="194" y="644" type="curve" smooth="yes"/>
      <point x="92" y="66" type="line" smooth="yes"/>
      <point x="87" y="37"/>
      <point x="50" y="30"/>
      <point x="1" y="30" type="curve"/>
      <point x="-10" y="30" type="line"/>
    </contour>
    <contour>
      <point x="388" y="0" type="move" name="bottom"/>
    </contour>
  </outline>
</glyph>
<glyph name="N" format="1">
  <advance width="750"/>
  <unicode hex="004E"/>
  <outline>
    <contour>
      <point x="-15" y="0" type="line"/>
      <point x="223" y="0" type="line"/>
      <point x="229" y="30" type="line"/>
      <point x="215" y="30" type="line" smooth="yes"/>
      <point x="172" y="30"/>
      <point x="124" y="38"/>
      <point x="125" y="45" type="curve" smooth="yes"/>
      <point x="236" y="677" type="line"/>
      <point x="508" y="0" type="line"/>
      <point x="552" y="0" type="line"/>
      <point x="665" y="639" type="line" smooth="yes"/>
      <point x="670" y="668"/>
      <point x="708" y="680"/>
      <point x="757" y="680" type="curve" smooth="yes"/>
      <point x="769" y="680" type="line"/>
      <point x="775" y="710" type="line"/>
      <point x="537" y="710" type="line"/>
      <point x="531" y="680" type="line"/>
      <point x="545" y="680" type="line" smooth="yes"/>
      <point x="588" y="680"/>
      <point x="636" y="672"/>
      <point x="635" y="665" type="curve" smooth="yes"/>
      <point x="527" y="54" type="line"/>
      <point x="265" y="710" type="line"/>
      <point x="111" y="710" type="line"/>
      <point x="105" y="680" type="line"/>
      <point x="116" y="680" type="line" smooth="yes"/>
      <point x="165" y="680"/>
      <point x="200" y="673"/>
      <point x="195" y="644" type="curve" smooth="yes"/>
      <point x="94" y="71" type="line" smooth="yes"/>
      <point x="89" y="42"/>
      <point x="51" y="30"/>
      <point x="2" y="30" type="curve" smooth="yes"/>
      <point x="-9" y="30" type="line"/>
    </contour>
    <contour>
      <point x="387.0" y="741.0" type="move" name="top"/>
    </contour>
    <contour>
      <point x="387.0" y="0.0" type="move" name="bottom"/>
    </contour>
  </outline>
</glyph>
<glyph name="R" format="1">
  <advance width="649"/>
  <unicode hex="0052"/>
  <outline>
    <contour>
      <point x="-15" y="0" type="line"/>
      <point x="207" y="0" type="line"/>
      <point x="213" y="30" type="line"/>
      <point x="204" y="30" type="line" smooth="yes"/>
      <point x="170" y="30"/>
      <point x="127" y="33"/>
      <point x="128" y="40" type="curve" smooth="yes"/>
      <point x="178" y="319" type="line"/>
      <point x="314" y="319" type="line" smooth="yes"/>
      <point x="328" y="319"/>
      <point x="342" y="320"/>
      <point x="356" y="321" type="curve"/>
      <point x="483" y="0" type="line"/>
      <point x="582" y="0" type="line"/>
      <point x="588" y="30" type="line"/>
      <point x="575" y="30" type="line" smooth="yes"/>
      <point x="540" y="30"/>
      <point x="516" y="35"/>
      <point x="506" y="58" type="curve" smooth="yes"/>
      <point x="394" y="327" type="line"/>
      <point x="507" y="350"/>
      <point x="576" y="425"/>
      <point x="576" y="534" type="curve" smooth="yes"/>
      <point x="576" y="639"/>
      <point x="499" y="710"/>
      <point x="348" y="710" type="curve" smooth="yes"/>
      <point x="111" y="710" type="line"/>
      <point x="105" y="680" type="line"/>
      <point x="116" y="680" type="line" smooth="yes"/>
      <point x="165" y="680"/>
      <point x="200" y="673"/>
      <point x="195" y="644" type="curve" smooth="yes"/>
      <point x="93" y="66" type="line" smooth="yes"/>
      <point x="88" y="37"/>
      <point x="51" y="30"/>
      <point x="2" y="30" type="curve" smooth="yes"/>
      <point x="-9" y="30" type="line"/>
    </contour>
    <contour>
      <point x="340" y="680" type="line" smooth="yes"/>
      <point x="473" y="680"/>
      <point x="533" y="625"/>
      <point x="533" y="535" type="curve" smooth="yes"/>
      <point x="533" y="427"/>
      <point x="464" y="349"/>
      <point x="319" y="349" type="curve" smooth="yes"/>
      <point x="183" y="349" type="line"/>
      <point x="241" y="680" type="line"/>
    </contour>
    <contour>
      <point x="364" y="741" type="move" name="top"/>
    </contour>
    <contour>
      <point x="364" y="0" type="move" name="bottom"/>
    </contour>
  </outline>
</glyph>
<glyph name="S" format="1">
  <advance width="613"/>
  <unicode hex="0053"/>
  <outline>
    <contour>
      <point x="314" y="-10" type="curve" smooth="yes"/>
      <point x="434" y="-10"/>
      <point x="532" y="61"/>
      <point x="532" y="184" type="curve" smooth="yes"/>
      <point x="532" y="292"/>
      <point x="432" y="340"/>
      <point x="336" y="385" type="curve" smooth="yes"/>
      <point x="247" y="427"/>
      <point x="167" y="463"/>
      <point x="167" y="552" type="curve" smooth="yes"/>
      <point x="167" y="629"/>
      <point x="218" y="690"/>
      <point x="329" y="690" type="curve" smooth="yes"/>
      <point x="442" y="690"/>
      <point x="500" y="615"/>
      <point x="509" y="524" type="curve"/>
      <point x="541" y="524" type="line"/>
      <point x="574" y="710" type="line"/>
      <point x="548" y="710" type="line"/>
      <point x="520" y="598" type="line"/>
      <point x="498" y="664"/>
      <point x="433" y="720"/>
      <point x="329" y="720" type="curve" smooth="yes"/>
      <point x="200" y="720"/>
      <point x="127" y="646"/>
      <point x="127" y="552" type="curve" smooth="yes"/>
      <point x="127" y="440"/>
      <point x="223" y="400"/>
      <point x="316" y="355" type="curve" smooth="yes"/>
      <point x="403" y="314"/>
      <point x="492" y="273"/>
      <point x="492" y="182" type="curve" smooth="yes"/>
      <point x="492" y="75"/>
      <point x="414" y="20"/>
      <point x="314" y="20" type="curve" smooth="yes"/>
      <point x="187" y="20"/>
      <point x="96" y="105"/>
      <point x="86" y="226" type="curve"/>
      <point x="47" y="226" type="line"/>
      <point x="7" y="0" type="line"/>
      <point x="35" y="0" type="line"/>
      <point x="72" y="156" type="line"/>
      <point x="101" y="54"/>
      <point x="197" y="-10"/>
    </contour>
    <contour>
      <point x="349" y="741" type="move" name="top"/>
    </contour>
    <contour>
      <point x="349" y="0" type="move" name="bottom"/>
    </contour>
  </outline>
</glyph>
<glyph name="V" format="1">
  <advance width="664"/>
  <unicode hex="0056"/>
  <outline>
    <contour>
      <point x="77" y="710" type="line"/>
      <point x="71" y="680" type="line"/>
      <point x="76" y="680" type="line"/>
      <point x="110" y="680"/>
      <point x="132" y="678"/>
      <point x="136" y="652" type="curve" smooth="yes"/>
      <point x="246" y="0" type="line"/>
      <point x="303" y="0" type="line"/>
      <point x="633" y="637" type="line" smooth="yes"/>
      <point x="652" y="674"/>
      <point x="673" y="680"/>
      <point x="710" y="680" type="curve"/>
      <point x="715" y="680" type="line"/>
      <point x="721" y="710" type="line"/>
      <point x="514" y="710" type="line"/>
      <point x="508" y="680" type="line"/>
      <point x="523" y="680" type="line" smooth="yes"/>
      <point x="561" y="680"/>
      <point x="606" y="673"/>
      <point x="604" y="662" type="curve"/>
      <point x="281" y="32" type="line"/>
      <point x="177" y="670" type="line"/>
      <point x="178" y="677"/>
      <point x="226" y="680"/>
      <point x="264" y="680" type="curve" smooth="yes"/>
      <point x="281" y="680" type="line"/>
      <point x="287" y="710" type="line"/>
    </contour>
  </outline>
</glyph>
<glyph name="X" format="1">
  <advance width="679"/>
  <unicode hex="0058"/>
  <outline>
    <contour>
      <point x="-41" y="0" type="line"/>
      <point x="180" y="0" type="line"/>
      <point x="186" y="30" type="line"/>
      <point x="171" y="30" type="line" smooth="yes"/>
      <point x="134" y="30"/>
      <point x="87" y="37"/>
      <point x="89" y="48" type="curve"/>
      <point x="337" y="340" type="line"/>
      <point x="486" y="40" type="line"/>
      <point x="485" y="33"/>
      <point x="439" y="30"/>
      <point x="403" y="30" type="curve" smooth="yes"/>
      <point x="386" y="30" type="line"/>
      <point x="380" y="0" type="line"/>
      <point x="597" y="0" type="line"/>
      <point x="603" y="30" type="line"/>
      <point x="593" y="30" type="line" smooth="yes"/>
      <point x="556" y="30"/>
      <point x="535" y="32"/>
      <point x="519" y="64" type="curve" smooth="yes"/>
      <point x="366" y="366" type="line"/>
      <point x="596" y="635" type="line" smooth="yes"/>
      <point x="627" y="672"/>
      <point x="656" y="680"/>
      <point x="693" y="680" type="curve" smooth="yes"/>
      <point x="698" y="680" type="line"/>
      <point x="704" y="710" type="line"/>
      <point x="488" y="710" type="line"/>
      <point x="482" y="680" type="line"/>
      <point x="497" y="680" type="line" smooth="yes"/>
      <point x="535" y="680"/>
      <point x="579" y="673"/>
      <point x="577" y="662" type="curve"/>
      <point x="350" y="392" type="line"/>
      <point x="213" y="670" type="line"/>
      <point x="214" y="677"/>
      <point x="260" y="680"/>
      <point x="296" y="680" type="curve" smooth="yes"/>
      <point x="313" y="680" type="line"/>
      <point x="319" y="710" type="line"/>
      <point x="106" y="710" type="line"/>
      <point x="100" y="680" type="line"/>
      <point x="107" y="680" type="line" smooth="yes"/>
      <point x="144" y="680"/>
      <point x="166" y="679"/>
      <point x="181" y="648" type="curve" smooth="yes"/>
      <point x="320" y="369" type="line"/>
      <point x="69" y="76" type="line" smooth="yes"/>
      <point x="37" y="38"/>
      <point x="11" y="30"/>
      <point x="-25" y="30" type="curve" smooth="yes"/>
      <point x="-35" y="30" type="line"/>
    </contour>
  </outline>
</glyph>
<glyph name="bracketleft" format="1">
  <advance width="280"/>
  <unicode hex="005B"/>
  <outline>
    <contour>
      <point x="201" y="-100" type="line"/>
      <point x="58" y="-100" type="line"/>
      <point x="204" y="720" type="line"/>
      <point x="339" y="720" type="line"/>
      <point x="345" y="750" type="line"/>
      <point x="169" y="750" type="line"/>
      <point x="13" y="-130" type="line"/>
      <point x="195" y="-130" type="line"/>
    </contour>
  </outline>
</glyph>
<glyph name="asciicircum" format="1">
  <advance width="500.0"/>
  <unicode hex="005E"/>
  <outline>
    <contour>
      <point x="107" y="364" type="line"/>
      <point x="308" y="676" type="line"/>
      <point x="397" y="364" type="line"/>
      <point x="437" y="364" type="line"/>
      <point x="335" y="710" type="line"/>
      <point x="291" y="710" type="line"/>
      <point x="66" y="364" type="line"/>
    </contour>
  </outline>
</glyph>
<glyph name="grave" format="1">
  <advance width="500"/>
  <unicode hex="0060"/>
  <outline>
    <contour>
      <point x="194" y="711" type="line" smooth="yes"/>
      <point x="177" y="738"/>
      <point x="168" y="754"/>
      <point x="148" y="754" type="curve" smooth="yes"/>
      <point x="133" y="754"/>
      <point x="122" y="744"/>
      <point x="122" y="731" type="curve" smooth="yes"/>
      <point x="122" y="714"/>
      <point x="139" y="697"/>
      <point x="154" y="681" type="curve" smooth="yes"/>
      <point x="257" y="576" type="line"/>
      <point x="270" y="576" type="line"/>
      <point x="268" y="590" type="line"/>
    </contour>
    <contour>
      <point x="243" y="531" type="move" name="_top"/>
    </contour>
  </outline>
</glyph>
<glyph name="b" format="1">
  <advance width="564"/>
  <unicode hex="0062"/>
  <outline>
    <contour>
      <point x="255" y="-11" type="curve" smooth="yes"/>
      <point x="418" y="-11"/>
      <point x="524" y="146"/>
      <point x="524" y="322" type="curve" smooth="yes"/>
      <point x="524" y="432"/>
      <point x="480" y="518"/>
      <point x="376" y="518" type="curve" smooth="yes"/>
      <point x="292" y="518"/>
      <point x="227" y="457"/>
      <point x="168" y="356" type="curve"/>
      <point x="235" y="735" type="line"/>
      <point x="111" y="735" type="line"/>
      <point x="106" y="710" type="line"/>
      <point x="116" y="708" type="line" smooth="yes"/>
      <point x="164" y="698"/>
      <point x="187" y="692"/>
      <point x="182" y="663" type="curve" smooth="yes"/>
      <point x="76" y="61" type="line"/>
      <point x="106" y="27"/>
      <point x="173" y="-11"/>
    </contour>
    <contour>
      <point x="374" y="488" type="curve" smooth="yes"/>
      <point x="451" y="488"/>
      <point x="481" y="413"/>
      <point x="481" y="322" type="curve" smooth="yes"/>
      <point x="481" y="163"/>
      <point x="399" y="19"/>
      <point x="255" y="19" type="curve" smooth="yes"/>
      <point x="201" y="19"/>
      <point x="149" y="42"/>
      <point x="118" y="72" type="curve"/>
      <point x="156" y="288" type="line"/>
      <point x="219" y="405"/>
      <point x="287" y="488"/>
    </contour>
  </outline>
</glyph>
<glyph name="e" format="1">
  <advance width="466"/>
  <unicode hex="0065"/>
  <outline>
    <contour>
      <point x="83" y="207" type="curve" smooth="yes"/>
      <point x="83" y="211"/>
      <point x="83" y="214"/>
      <point x="83" y="217" type="curve"/>
      <point x="313" y="219"/>
      <point x="433" y="274"/>
      <point x="433" y="398" type="curve" smooth="yes"/>
      <point x="433" y="468"/>
      <point x="384" y="518"/>
      <point x="293" y="518" type="curve" smooth="yes"/>
      <point x="137" y="518"/>
      <point x="40" y="362"/>
      <point x="40" y="207" type="curve" smooth="yes"/>
      <point x="40" y="64"/>
      <point x="124" y="-12"/>
      <point x="236" y="-12" type="curve" smooth="yes"/>
      <point x="326" y="-12"/>
      <point x="389" y="39"/>
      <point x="425" y="104" type="curve"/>
      <point x="400" y="122" type="line"/>
      <point x="361" y="56"/>
      <point x="314" y="18"/>
      <point x="236" y="18" type="curve" smooth="yes"/>
      <point x="145" y="18"/>
      <point x="83" y="81"/>
    </contour>
    <contour>
      <point x="293" y="488" type="curve" smooth="yes"/>
      <point x="358" y="488"/>
      <point x="394" y="453"/>
      <point x="394" y="398" type="curve" smooth="yes"/>
      <point x="394" y="295"/>
      <point x="309" y="247"/>
      <point x="84" y="241" type="curve"/>
      <point x="96" y="383"/>
      <point x="181" y="488"/>
    </contour>
  </outline>
</glyph>
<glyph name="f" format="1">
  <advance width="333"/>
  <unicode hex="0066"/>
  <outline>
    <contour>
      <point x="92" y="-223" type="line"/>
      <point x="189" y="481" type="line"/>
      <point x="349" y="481" type="line"/>
      <point x="353" y="508" type="line"/>
      <point x="193" y="508" type="line"/>
      <point x="206" y="601" type="line" smooth="yes"/>
      <point x="219" y="692"/>
      <point x="257" y="722"/>
      <point x="322" y="722" type="curve" smooth="yes"/>
      <point x="363" y="722"/>
      <point x="396" y="706"/>
      <point x="405" y="703" type="curve"/>
      <point x="411" y="735" type="line"/>
      <point x="404" y="739"/>
      <point x="373" y="752"/>
      <point x="322" y="752" type="curve" smooth="yes"/>
      <point x="245" y="752"/>
      <point x="178" y="713"/>
      <point x="164" y="607" type="curve" smooth="yes"/>
      <point x="151" y="508" type="line"/>
      <point x="54" y="508" type="line"/>
      <point x="50" y="481" type="line"/>
      <point x="148" y="481" type="line"/>
      <point x="58" y="-223" type="line"/>
    </contour>
  </outline>
</glyph>
<glyph name="i" format="1">
  <advance width="265"/>
  <unicode hex="0069"/>
  <outline>
    <contour>
      <point x="200" y="657" type="curve" smooth="yes"/>
      <point x="223" y="657"/>
      <point x="240" y="671"/>
      <point x="240" y="697" type="curve" smooth="yes"/>
      <point x="240" y="723"/>
      <point x="223" y="737"/>
      <point x="200" y="737" type="curve" smooth="yes"/>
      <point x="177" y="737"/>
      <point x="160" y="723"/>
      <point x="160" y="697" type="curve" smooth="yes"/>
      <point x="160" y="671"/>
      <point x="177" y="657"/>
    </contour>
    <contour>
      <point x="142" y="186" type="curve" smooth="yes"/>
      <point x="199" y="508" type="line"/>
      <point x="75" y="508" type="line"/>
      <point x="70" y="483" type="line"/>
      <point x="80" y="481" type="line" smooth="yes"/>
      <point x="128" y="471"/>
      <point x="151" y="465"/>
      <point x="146" y="436" type="curve" smooth="yes"/>
      <point x="105" y="204" type="line" smooth="yes"/>
      <point x="94" y="144"/>
      <point x="84" y="91"/>
      <point x="84" y="59" type="curve" smooth="yes"/>
      <point x="84" y="12"/>
      <point x="114" y="-7"/>
      <point x="156" y="-7" type="curve" smooth="yes"/>
      <point x="182" y="-7"/>
      <point x="211" y="4"/>
      <point x="223" y="13" type="curve"/>
      <point x="228" y="41" type="line"/>
      <point x="220" y="39"/>
      <point x="193" y="23"/>
      <point x="159" y="23" type="curve" smooth="yes"/>
      <point x="137" y="23"/>
      <point x="124" y="33"/>
      <point x="124" y="59" type="curve" smooth="yes"/>
      <point x="124" y="87"/>
      <point x="134" y="143"/>
    </contour>
    <contour>
      <point x="159.0" y="551.0" type="move" name="top"/>
    </contour>
    <contour>
      <point x="159.0" y="-10.0" type="move" name="bottom"/>
    </contour>
    <contour>
      <point x="201.0" y="-10.0" type="move" name="right"/>
    </contour>
  </outline>
</glyph>
<glyph name="j" format="1">
  <advance width="251"/>
  <unicode hex="006A"/>
  <outline>
    <contour>
      <point x="201" y="657" type="curve" smooth="yes"/>
      <point x="224" y="657"/>
      <point x="241" y="671"/>
      <point x="241" y="697" type="curve" smooth="yes"/>
      <point x="241" y="723"/>
      <point x="224" y="737"/>
      <point x="201" y="737" type="curve" smooth="yes"/>
      <point x="178" y="737"/>
      <point x="161" y="723"/>
      <point x="161" y="697" type="curve" smooth="yes"/>
      <point x="161" y="671"/>
      <point x="178" y="657"/>
    </contour>
    <contour>
      <point x="60" y="-86" type="line" smooth="yes"/>
      <point x="45" y="-171"/>
      <point x="5" y="-204"/>
      <point x="-53" y="-204" type="curve" smooth="yes"/>
      <point x="-97" y="-204"/>
      <point x="-131" y="-189"/>
      <point x="-148" y="-182" type="curve"/>
      <point x="-155" y="-215" type="line"/>
      <point x="-140" y="-222"/>
      <point x="-104" y="-236"/>
      <point x="-55" y="-236" type="curve" smooth="yes"/>
      <point x="15" y="-236"/>
      <point x="79" y="-206"/>
      <point x="100" y="-87" type="curve" smooth="yes"/>
      <point x="204" y="508" type="line"/>
      <point x="79" y="508" type="line"/>
      <point x="75" y="483" type="line"/>
      <point x="85" y="481" type="line" smooth="yes"/>
      <point x="133" y="471"/>
      <point x="156" y="465"/>
      <point x="151" y="436" type="curve" smooth="yes"/>
    </contour>
    <contour>
      <point x="138" y="551" type="move" name="top"/>
    </contour>
  </outline>
</glyph>
<glyph name="n" format="1">
  <advance width="576"/>
  <unicode hex="006E"/>
  <outline>
    <contour>
      <point x="110" y="0" type="line"/>
      <point x="164" y="305" type="line"/>
      <point x="232" y="412"/>
      <point x="300" y="485"/>
      <point x="375" y="485" type="curve" smooth="yes"/>
      <point x="425" y="485"/>
      <point x="449" y="458"/>
      <point x="449" y="419" type="curve" smooth="yes"/>
      <point x="449" y="382"/>
      <point x="443" y="352"/>
      <point x="436" y="315" type="curve" smooth="yes"/>
      <point x="414" y="206" type="line" smooth="yes"/>
      <point x="401" y="141"/>
      <point x="392" y="91"/>
      <point x="392" y="59" type="curve" smooth="yes"/>
      <point x="392" y="12"/>
      <point x="422" y="-7"/>
      <point x="464" y="-7" type="curve" smooth="yes"/>
      <point x="490" y="-7"/>
      <point x="519" y="4"/>
      <point x="531" y="13" type="curve"/>
      <point x="536" y="41" type="line"/>
      <point x="528" y="39"/>
      <point x="501" y="23"/>
      <point x="467" y="23" type="curve" smooth="yes"/>
      <point x="445" y="23"/>
      <point x="432" y="33"/>
      <point x="432" y="59" type="curve" smooth="yes"/>
      <point x="432" y="87"/>
      <point x="442" y="140"/>
      <point x="451" y="188" type="curve" smooth="yes"/>
      <point x="475" y="312" type="line" smooth="yes"/>
      <point x="482" y="349"/>
      <point x="489" y="385"/>
      <point x="489" y="419" type="curve" smooth="yes"/>
      <point x="489" y="477"/>
      <point x="451" y="518"/>
      <point x="384" y="518" type="curve" smooth="yes"/>
      <point x="306" y="518"/>
      <point x="237" y="457"/>
      <point x="174" y="361" type="curve"/>
      <point x="200" y="508" type="line"/>
      <point x="76" y="508" type="line"/>
      <point x="71" y="483" type="line"/>
      <point x="81" y="481" type="line" smooth="yes"/>
      <point x="129" y="471"/>
      <point x="152" y="465"/>
      <point x="147" y="436" type="curve" smooth="yes"/>
      <point x="70" y="0" type="line"/>
    </contour>
    <contour>
      <point x="291.0" y="551.0" type="move" name="top"/>
    </contour>
    <contour>
      <point x="297.0" y="0.0" type="move" name="bottom"/>
    </contour>
  </outline>
</glyph>
<glyph name="q" format="1">
  <advance width="541"/>
  <unicode hex="0071"/>
  <outline>
    <contour>
      <point x="460" y="-196" type="line"/>
      <point x="458" y="-196" type="line"/>
      <point x="410" y="-196"/>
      <point x="378" y="-189"/>
      <point x="383" y="-160" type="curve" smooth="yes"/>
      <point x="501" y="511" type="line"/>
      <point x="474" y="511" type="line"/>
      <point x="453" y="437" type="line"/>
      <point x="425" y="490"/>
      <point x="371" y="518"/>
      <point x="309" y="518" type="curve" smooth="yes"/>
      <point x="146" y="518"/>
      <point x="40" y="361"/>
      <point x="40" y="185" type="curve" smooth="yes"/>
      <point x="40" y="75"/>
      <point x="84" y="-11"/>
      <point x="188" y="-11" type="curve" smooth="yes"/>
      <point x="273" y="-11"/>
      <point x="339" y="51"/>
      <point x="398" y="154" type="curve"/>
      <point x="338" y="-186" type="line"/>
      <point x="337" y="-193"/>
      <point x="289" y="-196"/>
      <point x="263" y="-196" type="curve" smooth="yes"/>
      <point x="234" y="-196" type="line"/>
      <point x="230" y="-223" type="line"/>
      <point x="456" y="-223" type="line"/>
    </contour>
    <contour>
      <point x="309" y="488" type="curve" smooth="yes"/>
      <point x="368" y="488"/>
      <point x="418" y="455"/>
      <point x="440" y="394" type="curve"/>
      <point x="410" y="222" type="line"/>
      <point x="346" y="104"/>
      <point x="277" y="19"/>
      <point x="190" y="19" type="curve" smooth="yes"/>
      <point x="113" y="19"/>
      <point x="83" y="94"/>
      <point x="83" y="185" type="curve" smooth="yes"/>
      <point x="83" y="344"/>
      <point x="165" y="488"/>
    </contour>
  </outline>
</glyph>
<glyph name="r" format="1">
  <advance width="356"/>
  <unicode hex="0072"/>
  <outline>
    <contour>
      <point x="106" y="0" type="line"/>
      <point x="159" y="298" type="line"/>
      <point x="201" y="391"/>
      <point x="251" y="471"/>
      <point x="309" y="471" type="curve" smooth="yes"/>
      <point x="329" y="471"/>
      <point x="346" y="465"/>
      <point x="350" y="464" type="curve"/>
      <point x="357" y="513" type="line"/>
      <point x="356" y="514"/>
      <point x="345" y="518"/>
      <point x="325" y="518" type="curve" smooth="yes"/>
      <point x="258" y="518"/>
      <point x="209" y="445"/>
      <point x="170" y="363" type="curve"/>
      <point x="196" y="508" type="line"/>
      <point x="72" y="508" type="line"/>
      <point x="67" y="483" type="line"/>
      <point x="77" y="481" type="line" smooth="yes"/>
      <point x="125" y="471"/>
      <point x="148" y="465"/>
      <point x="143" y="436" type="curve" smooth="yes"/>
      <point x="66" y="0" type="line"/>
    </contour>
    <contour>
      <point x="201" y="545" type="move" name="top"/>
    </contour>
    <contour>
      <point x="154" y="0" type="move" name="bottom"/>
    </contour>
  </outline>
</glyph>
<glyph name="w" format="1">
  <advance width="706"/>
  <unicode hex="0077"/>
  <outline>
    <contour>
      <point x="108" y="436" type="curve" smooth="yes"/>
      <point x="144" y="0" type="line"/>
      <point x="185" y="0" type="line"/>
      <point x="386" y="446" type="line"/>
      <point x="446" y="0" type="line"/>
      <point x="487" y="0" type="line"/>
      <point x="709" y="502" type="line"/>
      <point x="709" y="508" type="line"/>
      <point x="667" y="508" type="line"/>
      <point x="474" y="38" type="line"/>
      <point x="414" y="508" type="line"/>
      <point x="381" y="508" type="line"/>
      <point x="175" y="47" type="line"/>
      <point x="138" y="508" type="line"/>
      <point x="32" y="508" type="line"/>
      <point x="27" y="483" type="line"/>
      <point x="37" y="481" type="line" smooth="yes"/>
      <point x="87" y="471"/>
      <point x="106" y="462"/>
    </contour>
    <contour>
      <point x="353" y="551" type="move" name="top"/>
    </contour>
  </outline>
</glyph>
<glyph name="x" format="1">
  <advance width="480"/>
  <unicode hex="0078"/>
  <outline>
    <contour>
      <point x="325" y="111" type="curve" smooth="yes"/>
      <point x="263" y="263" type="line"/>
      <point x="461" y="503" type="line"/>
      <point x="461" y="508" type="line"/>
      <point x="419" y="508" type="line"/>
      <point x="254" y="286" type="line"/>
      <point x="164" y="508" type="line"/>
      <point x="77" y="508" type="line"/>
      <point x="72" y="483" type="line"/>
      <point x="82" y="481" type="line" smooth="yes"/>
      <point x="132" y="471"/>
      <point x="142" y="463"/>
      <point x="153" y="436" type="curve" smooth="yes"/>
      <point x="224" y="261" type="line"/>
      <point x="14" y="5" type="line"/>
      <point x="14" y="0" type="line"/>
      <point x="56" y="0" type="line"/>
      <point x="234" y="236" type="line"/>
      <point x="290" y="99" type="line" smooth="yes"/>
      <point x="325" y="14"/>
      <point x="345" y="-7"/>
      <point x="392" y="-7" type="curve"/>
      <point x="412" y="-7"/>
      <point x="433" y="2"/>
      <point x="443" y="11" type="curve"/>
      <point x="448" y="39" type="line"/>
      <point x="443" y="38"/>
      <point x="419" y="23"/>
      <point x="396" y="23" type="curve" smooth="yes"/>
      <point x="368" y="23"/>
      <point x="352" y="45"/>
    </contour>
  </outline>
</glyph>
<glyph name="ordfeminine" format="1">
  <advance width="454"/>
  <unicode hex="00AA"/>
  <outline>
    <contour>
      <point x="201" y="321" type="curve" smooth="yes"/>
      <point x="261" y="321"/>
      <point x="306" y="364"/>
      <point x="347" y="436" type="curve"/>
      <point x="343" y="412"/>
      <point x="339" y="387"/>
      <point x="339" y="372" type="curve" smooth="yes"/>
      <point x="339" y="338"/>
      <point x="363" y="324"/>
      <point x="399" y="324" type="curve" smooth="yes"/>
      <point x="420" y="324"/>
      <point x="443" y="332"/>
      <point x="452" y="339" type="curve"/>
      <point x="456" y="364" type="line"/>
      <point x="450" y="362"/>
      <point x="430" y="350"/>
      <point x="407" y="350" type="curve" smooth="yes"/>
      <point x="389" y="350"/>
      <point x="378" y="358"/>
      <point x="378" y="375" type="curve" smooth="yes"/>
      <point x="378" y="393"/>
      <point x="382" y="414"/>
      <point x="385" y="433" type="curve" smooth="yes"/>
      <point x="434" y="713" type="line"/>
      <point x="410" y="713" type="line"/>
      <point x="392" y="659" type="line"/>
      <point x="372" y="699"/>
      <point x="336" y="720"/>
      <point x="292" y="720" type="curve" smooth="yes"/>
      <point x="172" y="720"/>
      <point x="93" y="584"/>
      <point x="93" y="460" type="curve" smooth="yes"/>
      <point x="93" y="375"/>
      <point x="130" y="321"/>
    </contour>
    <contour>
      <point x="133" y="460" type="curve" smooth="yes"/>
      <point x="133" y="569"/>
      <point x="192" y="694"/>
      <point x="292" y="694" type="curve" smooth="yes"/>
      <point x="333" y="694"/>
      <point x="366" y="668"/>
      <point x="381" y="619" type="curve"/>
      <point x="360" y="501" type="line"/>
      <point x="314" y="411"/>
      <point x="267" y="347"/>
      <point x="206" y="347" type="curve" smooth="yes"/>
      <point x="158" y="347"/>
      <point x="133" y="389"/>
    </contour>
  </outline>
</glyph>
<glyph name="cedilla" format="1">
  <advance width="600"/>
  <unicode hex="00B8"/>
  <outline>
    <contour>
      <point x="324" y="4" type="line"/>
      <point x="287" y="4" type="line"/>
      <point x="238" y="-88" type="line"/>
      <point x="253" y="-88" type="line" smooth="yes"/>
      <point x="307" y="-88"/>
      <point x="332" y="-109"/>
      <point x="332" y="-142" type="curve" smooth="yes"/>
      <point x="332" y="-180"/>
      <point x="307" y="-208"/>
      <point x="265" y="-208" type="curve" smooth="yes"/>
      <point x="220" y="-208"/>
      <point x="196" y="-177"/>
      <point x="181" y="-154" type="curve"/>
      <point x="155" y="-176" type="line"/>
      <point x="176" y="-210"/>
      <point x="207" y="-236"/>
      <point x="265" y="-236" type="curve" smooth="yes"/>
      <point x="323" y="-236"/>
      <point x="372" y="-196"/>
      <point x="372" y="-142" type="curve" smooth="yes"/>
      <point x="372" y="-96"/>
      <point x="333" y="-67"/>
      <point x="277" y="-63" type="curve"/>
    </contour>
    <contour>
      <point x="227" y="34" type="move" name="_bottom"/>
    </contour>
  </outline>
</glyph>
<glyph name="ordmasculine" format="1">
  <advance width="474"/>
  <unicode hex="00BA"/>
  <outline>
    <contour>
      <point x="245" y="320" type="curve" smooth="yes"/>
      <point x="360" y="320"/>
      <point x="442" y="416"/>
      <point x="442" y="546" type="curve" smooth="yes"/>
      <point x="442" y="652"/>
      <point x="373" y="720"/>
      <point x="279" y="720" type="curve" smooth="yes"/>
      <point x="164" y="720"/>
      <point x="82" y="624"/>
      <point x="82" y="494" type="curve" smooth="yes"/>
      <point x="82" y="388"/>
      <point x="151" y="320"/>
    </contour>
    <contour>
      <point x="279" y="694" type="curve"/>
      <point x="353" y="694"/>
      <point x="402" y="641"/>
      <point x="402" y="546" type="curve" smooth="yes"/>
      <point x="402" y="515"/>
      <point x="397" y="486"/>
      <point x="387" y="458" type="curve" smooth="yes"/>
      <point x="363" y="394"/>
      <point x="312" y="346"/>
      <point x="245" y="346" type="curve" smooth="yes"/>
      <point x="171" y="346"/>
      <point x="122" y="399"/>
      <point x="122" y="494" type="curve" smooth="yes"/>
      <point x="122" y="525"/>
      <point x="127" y="554"/>
      <point x="137" y="582" type="curve" smooth="yes"/>
      <point x="161" y="646"/>
      <point x="212" y="694"/>
    </contour>
  </outline>
</glyph>
<glyph name="AE" format="1">
  <advance width="960"/>
  <unicode hex="00C6"/>
  <outline>
    <contour>
      <point x="-43" y="0" type="line"/>
      <point x="158" y="0" type="line"/>
      <point x="164" y="30" type="line"/>
      <point x="149" y="30" type="line" smooth="yes"/>
      <point x="111" y="30"/>
      <point x="66" y="37"/>
      <point x="68" y="48" type="curve"/>
      <point x="245" y="268" type="line"/>
      <point x="502" y="268" type="line"/>
      <point x="466" y="66" type="line" smooth="yes"/>
      <point x="461" y="37"/>
      <point x="424" y="30"/>
      <point x="375" y="30" type="curve" smooth="yes"/>
      <point x="364" y="30" type="line"/>
      <point x="358" y="0" type="line"/>
      <point x="850" y="0" type="line"/>
      <point x="884" y="188" type="line"/>
      <point x="857" y="188" type="line"/>
      <point x="827" y="73" type="line" smooth="yes"/>
      <point x="818" y="37"/>
      <point x="781" y="30"/>
      <point x="695" y="30" type="curve" smooth="yes"/>
      <point x="500" y="30" type="line"/>
      <point x="556" y="350" type="line"/>
      <point x="802" y="346" type="line"/>
      <point x="809" y="382" type="line"/>
      <point x="561" y="378" type="line"/>
      <point x="614" y="680" type="line"/>
      <point x="776" y="680" type="line" smooth="yes"/>
      <point x="862" y="680"/>
      <point x="897" y="673"/>
      <point x="894" y="637" type="curve" smooth="yes"/>
      <point x="887" y="547" type="line"/>
      <point x="913" y="547" type="line"/>
      <point x="942" y="710" type="line"/>
      <point x="423" y="710" type="line"/>
      <point x="417" y="680" type="line"/>
      <point x="430" y="680" type="line" smooth="yes"/>
      <point x="480" y="680"/>
      <point x="515" y="673"/>
      <point x="516" y="656" type="curve"/>
      <point x="45" y="73" type="line" smooth="yes"/>
      <point x="17" y="39"/>
      <point x="1" y="30"/>
      <point x="-32" y="30" type="curve" smooth="yes"/>
      <point x="-37" y="30" type="line"/>
    </contour>
    <contour>
      <point x="269" y="298" type="line"/>
      <point x="574" y="678" type="line"/>
      <point x="507" y="298" type="line"/>
    </contour>
    <contour>
      <point x="639" y="741" type="move" name="top"/>
    </contour>
  </outline>
</glyph>
<glyph name="Eth" format="1">
  <advance width="713"/>
  <unicode hex="00D0"/>
  <outline>
    <contour>
      <point x="53" y="370" type="line"/>
      <point x="47" y="340" type="line"/>
      <point x="142" y="340" type="line"/>
      <point x="94" y="66" type="line" smooth="yes"/>
      <point x="89" y="37"/>
      <point x="52" y="30"/>
      <point x="3" y="30" type="curve" smooth="yes"/>
      <point x="-9" y="30" type="line"/>
      <point x="-15" y="0" type="line"/>
      <point x="244" y="0" type="line" smooth="yes"/>
      <point x="561" y="0"/>
      <point x="678" y="190"/>
      <point x="678" y="398" type="curve" smooth="yes"/>
      <point x="678" y="577"/>
      <point x="563" y="710"/>
      <point x="313" y="710" type="curve" smooth="yes"/>
      <point x="111" y="710" type="line"/>
      <point x="105" y="680" type="line"/>
      <point x="117" y="680" type="line" smooth="yes"/>
      <point x="166" y="680"/>
      <point x="201" y="671"/>
      <point x="196" y="644" type="curve" smooth="yes"/>
      <point x="148" y="370" type="line"/>
    </contour>
    <contour>
      <point x="311" y="680" type="line" smooth="yes"/>
      <point x="535" y="680"/>
      <point x="635" y="566"/>
      <point x="635" y="398" type="curve" smooth="yes"/>
      <point x="635" y="208"/>
      <point x="539" y="30"/>
      <point x="246" y="30" type="curve" smooth="yes"/>
      <point x="128" y="30" type="line"/>
      <point x="182" y="340" type="line"/>
      <point x="437" y="340" type="line"/>
      <point x="443" y="370" type="line"/>
      <point x="188" y="370" type="line"/>
      <point x="242" y="680" type="line"/>
    </contour>
  </outline>
</glyph>
<glyph name="Oslash" format="1">
  <advance width="740"/>
  <unicode hex="00D8"/>
  <outline>
    <contour>
      <point x="705" y="389" type="curve" smooth="yes"/>
      <point x="705" y="468"/>
      <point x="682" y="545"/>
      <point x="638" y="604" type="curve"/>
      <point x="760" y="720" type="line"/>
      <point x="718" y="720" type="line"/>
      <point x="620" y="627" type="line"/>
      <point x="569" y="684"/>
      <point x="496" y="720"/>
      <point x="404" y="720" type="curve" smooth="yes"/>
      <point x="184" y="720"/>
      <point x="45" y="521"/>
      <point x="45" y="321" type="curve" smooth="yes"/>
      <point x="45" y="252"/>
      <point x="63" y="184"/>
      <point x="97" y="129" type="curve"/>
      <point x="-49" y="-10" type="line"/>
      <point x="-7" y="-10" type="line"/>
      <point x="113" y="104" type="line"/>
      <point x="164" y="36"/>
      <point x="243" y="-10"/>
      <point x="346" y="-10" type="curve" smooth="yes"/>
      <point x="566" y="-10"/>
      <point x="705" y="189"/>
    </contour>
    <contour>
      <point x="88" y="321" type="curve" smooth="yes"/>
      <point x="88" y="504"/>
      <point x="205" y="690"/>
      <point x="404" y="690" type="curve" smooth="yes"/>
      <point x="492" y="690"/>
      <point x="556" y="658"/>
      <point x="598" y="606" type="curve"/>
      <point x="122" y="153" type="line"/>
      <point x="99" y="201"/>
      <point x="88" y="258"/>
    </contour>
    <contour>
      <point x="662" y="389" type="curve" smooth="yes"/>
      <point x="662" y="206"/>
      <point x="545" y="20"/>
      <point x="346" y="20" type="curve" smooth="yes"/>
      <point x="246" y="20"/>
      <point x="178" y="61"/>
      <point x="137" y="127" type="curve"/>
      <point x="615" y="582" type="line"/>
      <point x="647" y="530"/>
      <point x="662" y="463"/>
    </contour>
    <contour>
      <point x="371.0" y="731.0" type="move" name="top"/>
    </contour>
  </outline>
</glyph>
<glyph name="divide" format="1">
  <advance width="560"/>
  <unicode hex="00F7"/>
  <outline>
    <contour>
      <point x="358" y="509" type="curve" smooth="yes"/>
      <point x="358" y="535"/>
      <point x="341" y="551"/>
      <point x="316" y="551" type="curve" smooth="yes"/>
      <point x="291" y="551"/>
      <point x="274" y="535"/>
      <point x="274" y="509" type="curve" smooth="yes"/>
      <point x="274" y="483"/>
      <point x="291" y="467"/>
      <point x="316" y="467" type="curve" smooth="yes"/>
      <point x="341" y="467"/>
      <point x="358" y="483"/>
    </contour>
    <contour>
      <point x="300" y="173" type="curve" smooth="yes"/>
      <point x="300" y="199"/>
      <point x="283" y="215"/>
      <point x="258" y="215" type="curve" smooth="yes"/>
      <point x="233" y="215"/>
      <point x="216" y="199"/>
      <point x="216" y="173" type="curve" smooth="yes"/>
      <point x="216" y="147"/>
      <point x="233" y="131"/>
      <point x="258" y="131" type="curve" smooth="yes"/>
      <point x="283" y="131"/>
      <point x="300" y="147"/>
    </contour>
    <contour>
      <point x="481" y="356" type="line"/>
      <point x="107" y="356" type="line"/>
      <point x="101" y="326" type="line"/>
      <point x="475" y="326" type="line"/>
    </contour>
  </outline>
</glyph>
<glyph name="thorn" format="1">
  <advance width="569"/>
  <unicode hex="00FE"/>
  <outline>
    <contour>
      <point x="241" y="735" type="line"/>
      <point x="117" y="735" type="line"/>
      <point x="112" y="710" type="line"/>
      <point x="122" y="708" type="line" smooth="yes"/>
      <point x="170" y="698"/>
      <point x="193" y="692"/>
      <point x="188" y="663" type="curve" smooth="yes"/>
      <point x="42" y="-160" type="line" smooth="yes"/>
      <point x="37" y="-189"/>
      <point x="1" y="-196"/>
      <point x="-47" y="-196" type="curve" smooth="yes"/>
      <point x="-49" y="-196" type="line"/>
      <point x="-53" y="-223" type="line"/>
      <point x="174" y="-223" type="line"/>
      <point x="178" y="-196" type="line"/>
      <point x="149" y="-196" type="line" smooth="yes"/>
      <point x="123" y="-196"/>
      <point x="77" y="-193"/>
      <point x="78" y="-186" type="curve" smooth="yes"/>
      <point x="122" y="60" type="line"/>
      <point x="151" y="14"/>
      <point x="202" y="-11"/>
      <point x="260" y="-11" type="curve" smooth="yes"/>
      <point x="423" y="-11"/>
      <point x="529" y="146"/>
      <point x="529" y="322" type="curve" smooth="yes"/>
      <point x="529" y="432"/>
      <point x="485" y="518"/>
      <point x="381" y="518" type="curve" smooth="yes"/>
      <point x="298" y="518"/>
      <point x="233" y="458"/>
      <point x="174" y="358" type="curve"/>
    </contour>
    <contour>
      <point x="260" y="19" type="curve" smooth="yes"/>
      <point x="202" y="19"/>
      <point x="153" y="51"/>
      <point x="130" y="109" type="curve"/>
      <point x="162" y="291" type="line"/>
      <point x="226" y="406"/>
      <point x="293" y="488"/>
      <point x="379" y="488" type="curve" smooth="yes"/>
      <point x="456" y="488"/>
      <point x="486" y="413"/>
      <point x="486" y="322" type="curve" smooth="yes"/>
      <point x="486" y="163"/>
      <point x="404" y="19"/>
    </contour>
  </outline>
</glyph>
<glyph name="Aogonek" format="1">
  <advance width="664"/>
  <unicode hex="0104"/>
  <outline>
    <contour>
      <point x="-48" y="0" type="line"/>
      <point x="159" y="0" type="line"/>
      <point x="165" y="30" type="line"/>
      <point x="150" y="30" type="line" smooth="yes"/>
      <point x="112" y="30"/>
      <point x="67" y="37"/>
      <point x="69" y="48" type="curve"/>
      <point x="182" y="268" type="line"/>
      <point x="459" y="268" type="line"/>
      <point x="500" y="14" type="line"/>
      <point x="399" y="-23"/>
      <point x="336" y="-80"/>
      <point x="336" y="-145" type="curve" smooth="yes"/>
      <point x="336" y="-197"/>
      <point x="371" y="-233"/>
      <point x="430" y="-233" type="curve" smooth="yes"/>
      <point x="469" y="-233"/>
      <point x="501" y="-212"/>
      <point x="531" y="-181" type="curve"/>
      <point x="514" y="-159" type="line"/>
      <point x="489" y="-184"/>
      <point x="464" y="-203"/>
      <point x="430" y="-203" type="curve" smooth="yes"/>
      <point x="398" y="-203"/>
      <point x="378" y="-180"/>
      <point x="378" y="-145" type="curve" smooth="yes"/>
      <point x="378" y="-87"/>
      <point x="422" y="-42"/>
      <point x="534" y="0" type="curve"/>
      <point x="596" y="0" type="line"/>
      <point x="602" y="30" type="line"/>
      <point x="597" y="30" type="line"/>
      <point x="563" y="30"/>
      <point x="541" y="32"/>
      <point x="537" y="58" type="curve" smooth="yes"/>
      <point x="427" y="710" type="line"/>
      <point x="370" y="710" type="line"/>
      <point x="40" y="73" type="line" smooth="yes"/>
      <point x="21" y="36"/>
      <point x="0" y="30"/>
      <point x="-37" y="30" type="curve"/>
      <point x="-42" y="30" type="line"/>
    </contour>
    <contour>
      <point x="197" y="298" type="line"/>
      <point x="392" y="677" type="line"/>
      <point x="454" y="298" type="line"/>
    </contour>
  </outline>
</glyph>
<glyph name="itilde" format="1">
  <advance width="265"/>
  <unicode hex="0129"/>
  <outline>
    <contour>
      <point x="43" y="617" type="line"/>
      <point x="57" y="668"/>
      <point x="74" y="693"/>
      <point x="101" y="693" type="curve" smooth="yes"/>
      <point x="143" y="693"/>
      <point x="149" y="617"/>
      <point x="217" y="617" type="curve" smooth="yes"/>
      <point x="267" y="617"/>
      <point x="287" y="653"/>
      <point x="310" y="717" type="curve"/>
      <point x="283" y="728" type="line"/>
      <point x="266" y="679"/>
      <point x="252" y="651"/>
      <point x="222" y="651" type="curve" smooth="yes"/>
      <point x="176" y="651"/>
      <point x="170" y="727"/>
      <point x="108" y="727" type="curve" smooth="yes"/>
      <point x="64" y="727"/>
      <point x="35" y="698"/>
      <point x="17" y="629" type="curve"/>
    </contour>
    <component base="dotlessi"/>
  </outline>
</glyph>
<glyph name="iogonek" format="1">
  <advance width="265"/>
  <unicode hex="012F"/>
  <outline>
    <contour>
      <point x="199" y="21" type="curve"/>
      <point x="92" y="-24"/>
      <point x="22" y="-80"/>
      <point x="22" y="-145" type="curve" smooth="yes"/>
      <point x="22" y="-197"/>
      <point x="57" y="-233"/>
      <point x="116" y="-233" type="curve" smooth="yes"/>
      <point x="155" y="-233"/>
      <point x="187" y="-212"/>
      <point x="217" y="-181" type="curve"/>
      <point x="200" y="-159" type="line"/>
      <point x="175" y="-184"/>
      <point x="150" y="-203"/>
      <point x="116" y="-203" type="curve" smooth="yes"/>
      <point x="84" y="-203"/>
      <point x="64" y="-180"/>
      <point x="64" y="-145" type="curve" smooth="yes"/>
      <point x="64" y="-90"/>
      <point x="105" y="-48"/>
      <point x="211" y="6" type="curve"/>
      <point x="208" y="5"/>
      <point x="200" y="25"/>
    </contour>
    <component base="i"/>
  </outline>
</glyph>
<glyph name="eng" format="1">
  <advance width="556"/>
  <unicode hex="014B"/>
  <outline>
    <contour>
      <point x="70" y="0" type="line"/>
      <point x="110" y="0" type="line"/>
      <point x="164" y="305" type="line"/>
      <point x="232" y="412"/>
      <point x="300" y="485"/>
      <point x="375" y="485" type="curve" smooth="yes"/>
      <point x="425" y="485"/>
      <point x="449" y="458"/>
      <point x="449" y="419" type="curve" smooth="yes"/>
      <point x="449" y="382"/>
      <point x="443" y="352"/>
      <point x="436" y="315" type="curve" smooth="yes"/>
      <point x="356" y="-86" type="line" smooth="yes"/>
      <point x="339" y="-171"/>
      <point x="301" y="-204"/>
      <point x="243" y="-204" type="curve" smooth="yes"/>
      <point x="199" y="-204"/>
      <point x="165" y="-189"/>
      <point x="148" y="-182" type="curve"/>
      <point x="141" y="-215" type="line"/>
      <point x="156" y="-222"/>
      <point x="192" y="-236"/>
      <point x="241" y="-236" type="curve" smooth="yes"/>
      <point x="311" y="-236"/>
      <point x="372" y="-206"/>
      <point x="396" y="-87" type="curve" smooth="yes"/>
      <point x="475" y="312" type="line" smooth="yes"/>
      <point x="482" y="349"/>
      <point x="489" y="385"/>
      <point x="489" y="419" type="curve" smooth="yes"/>
      <point x="489" y="477"/>
      <point x="451" y="518"/>
      <point x="384" y="518" type="curve" smooth="yes"/>
      <point x="306" y="518"/>
      <point x="237" y="457"/>
      <point x="174" y="361" type="curve"/>
      <point x="200" y="508" type="line"/>
      <point x="76" y="508" type="line"/>
      <point x="71" y="483" type="line"/>
      <point x="81" y="481" type="line" smooth="yes"/>
      <point x="129" y="471"/>
      <point x="152" y="465"/>
      <point x="147" y="436" type="curve" smooth="yes"/>
    </contour>
  </outline>
</glyph>
<glyph name="Schwa" format="1">
  <advance width="680"/>
  <unicode hex="018F"/>
  <outline>
    <contour>
      <point x="308" y="-11" type="curve" smooth="yes"/>
      <point x="528" y="-11"/>
      <point x="645" y="210"/>
      <point x="645" y="416" type="curve" smooth="yes"/>
      <point x="645" y="614"/>
      <point x="528" y="720"/>
      <point x="362" y="720" type="curve" smooth="yes"/>
      <point x="233" y="720"/>
      <point x="141" y="661"/>
      <point x="81" y="566" type="curve"/>
      <point x="101" y="540" type="line"/>
      <point x="151" y="626"/>
      <point x="240" y="690"/>
      <point x="362" y="690" type="curve" smooth="yes"/>
      <point x="507" y="690"/>
      <point x="602" y="604"/>
      <point x="602" y="416" type="curve" smooth="yes"/>
      <point x="602" y="400"/>
      <point x="601" y="383"/>
      <point x="600" y="367" type="curve"/>
      <point x="55" y="367" type="line"/>
      <point x="48" y="326"/>
      <point x="45" y="288"/>
      <point x="45" y="255" type="curve" smooth="yes"/>
      <point x="45" y="77"/>
      <point x="148" y="-11"/>
    </contour>
    <contour>
      <point x="85" y="255" type="curve" smooth="yes"/>
      <point x="85" y="281"/>
      <point x="87" y="309"/>
      <point x="91" y="337" type="curve"/>
      <point x="597" y="337" type="line"/>
      <point x="574" y="171"/>
      <point x="481" y="19"/>
      <point x="308" y="19" type="curve" smooth="yes"/>
      <point x="162" y="19"/>
      <point x="85" y="95"/>
    </contour>
  </outline>
</glyph>
<glyph name="Ohorn" format="1">
  <advance width="740"/>
  <unicode hex="01A0"/>
  <outline>
    <contour>
      <point x="705" y="389" type="curve" smooth="yes"/>
      <point x="705" y="522"/>
      <point x="637" y="653"/>
      <point x="503" y="698" type="curve"/>
      <point x="640" y="694"/>
      <point x="737" y="727"/>
      <point x="768" y="878" type="curve"/>
      <point x="728" y="878" type="line"/>
      <point x="695" y="732"/>
      <point x="621" y="720"/>
      <point x="404" y="720" type="curve"/>
      <point x="184" y="720"/>
      <point x="45" y="521"/>
      <point x="45" y="321" type="curve" smooth="yes"/>
      <point x="45" y="149"/>
      <point x="154" y="-10"/>
      <point x="346" y="-10" type="curve" smooth="yes"/>
      <point x="566" y="-10"/>
      <point x="705" y="189"/>
    </contour>
    <contour>
      <point x="88" y="321" type="curve" smooth="yes"/>
      <point x="88" y="504"/>
      <point x="205" y="690"/>
      <point x="404" y="690" type="curve" smooth="yes"/>
      <point x="580" y="690"/>
      <point x="662" y="544"/>
      <point x="662" y="389" type="curve" smooth="yes"/>
      <point x="662" y="206"/>
      <point x="545" y="20"/>
      <point x="346" y="20" type="curve" smooth="yes"/>
      <point x="170" y="20"/>
      <point x="88" y="166"/>
    </contour>
    <contour>
      <point x="373.0" y="742.0" type="move" name="top"/>
    </contour>
  </outline>
</glyph>
<glyph name="Oogonek" format="1">
  <advance width="740"/>
  <unicode hex="01EA"/>
  <outline>
    <contour>
      <point x="460" y="-181" type="curve"/>
      <point x="443" y="-159" type="line"/>
      <point x="418" y="-184"/>
      <point x="393" y="-203"/>
      <point x="359" y="-203" type="curve" smooth="yes"/>
      <point x="327" y="-203"/>
      <point x="307" y="-180"/>
      <point x="307" y="-145" type="curve" smooth="yes"/>
      <point x="307" y="-78"/>
      <point x="350" y="-48"/>
      <point x="503" y="29" type="curve" smooth="yes"/>
      <point x="617" y="86"/>
      <point x="705" y="229"/>
      <point x="705" y="389" type="curve" smooth="yes"/>
      <point x="705" y="561"/>
      <point x="596" y="720"/>
      <point x="404" y="720" type="curve" smooth="yes"/>
      <point x="184" y="720"/>
      <point x="45" y="521"/>
      <point x="45" y="321" type="curve" smooth="yes"/>
      <point x="45" y="149"/>
      <point x="154" y="-10"/>
      <point x="346" y="-10" type="curve" smooth="yes"/>
      <point x="356" y="-10"/>
      <point x="366" y="-10"/>
      <point x="376" y="-9" type="curve"/>
      <point x="306" y="-47"/>
      <point x="265" y="-91"/>
      <point x="265" y="-145" type="curve" smooth="yes"/>
      <point x="265" y="-197"/>
      <point x="300" y="-233"/>
      <point x="359" y="-233" type="curve" smooth="yes"/>
      <point x="398" y="-233"/>
      <point x="430" y="-212"/>
    </contour>
    <contour>
      <point x="88" y="321" type="curve" smooth="yes"/>
      <point x="88" y="504"/>
      <point x="205" y="690"/>
      <point x="404" y="690" type="curve" smooth="yes"/>
      <point x="580" y="690"/>
      <point x="662" y="544"/>
      <point x="662" y="389" type="curve" smooth="yes"/>
      <point x="662" y="206"/>
      <point x="545" y="20"/>
      <point x="346" y="20" type="curve" smooth="yes"/>
      <point x="170" y="20"/>
      <point x="88" y="166"/>
    </contour>
  </outline>
</glyph>
<glyph name="oogonek" format="1">
  <advance width="537"/>
  <unicode hex="01EB"/>
  <outline>
    <contour>
      <point x="351" y="-181" type="curve"/>
      <point x="334" y="-159" type="line"/>
      <point x="309" y="-184"/>
      <point x="284" y="-203"/>
      <point x="250" y="-203" type="curve" smooth="yes"/>
      <point x="218" y="-203"/>
      <point x="198" y="-183"/>
      <point x="198" y="-148" type="curve" smooth="yes"/>
      <point x="198" y="-59"/>
      <point x="314" y="-34"/>
      <point x="407" y="59" type="curve" smooth="yes"/>
      <point x="464" y="116"/>
      <point x="497" y="201"/>
      <point x="497" y="288" type="curve" smooth="yes"/>
      <point x="497" y="415"/>
      <point x="415" y="518"/>
      <point x="296" y="518" type="curve" smooth="yes"/>
      <point x="145" y="518"/>
      <point x="40" y="372"/>
      <point x="40" y="218" type="curve" smooth="yes"/>
      <point x="40" y="91"/>
      <point x="122" y="-12"/>
      <point x="241" y="-12" type="curve" smooth="yes"/>
      <point x="255" y="-12"/>
      <point x="268" y="-11"/>
      <point x="281" y="-8" type="curve"/>
      <point x="202" y="-48"/>
      <point x="156" y="-96"/>
      <point x="156" y="-148" type="curve" smooth="yes"/>
      <point x="156" y="-200"/>
      <point x="191" y="-233"/>
      <point x="250" y="-233" type="curve" smooth="yes"/>
      <point x="289" y="-233"/>
      <point x="321" y="-212"/>
    </contour>
    <contour>
      <point x="296" y="488" type="curve" smooth="yes"/>
      <point x="395" y="488"/>
      <point x="454" y="404"/>
      <point x="454" y="288" type="curve" smooth="yes"/>
      <point x="454" y="161"/>
      <point x="377" y="18"/>
      <point x="241" y="18" type="curve" smooth="yes"/>
      <point x="142" y="18"/>
      <point x="83" y="102"/>
      <point x="83" y="218" type="curve" smooth="yes"/>
      <point x="83" y="345"/>
      <point x="160" y="488"/>
    </contour>
  </outline>
</glyph>
<glyph name="breve" format="1">
  <advance width="500"/>
  <unicode hex="02D8"/>
  <outline>
    <contour>
      <point x="260" y="594" type="curve" smooth="yes"/>
      <point x="323" y="594"/>
      <point x="375" y="637"/>
      <point x="392" y="736" type="curve"/>
      <point x="365" y="736" type="line"/>
      <point x="349" y="662"/>
      <point x="313" y="637"/>
      <point x="264" y="637" type="curve" smooth="yes"/>
      <point x="196" y="637"/>
      <point x="176" y="670"/>
      <point x="178" y="736" type="curve"/>
      <point x="150" y="736" type="line"/>
      <point x="149" y="726"/>
      <point x="149" y="716"/>
      <point x="149" y="711" type="curve" smooth="yes"/>
      <point x="149" y="634"/>
      <point x="190" y="594"/>
    </contour>
    <contour>
      <point x="246.0" y="537.0" type="move" name="_top"/>
    </contour>
  </outline>
</glyph>
<glyph name="Delta" format="1">
  <advance width="703"/>
  <unicode hex="0394"/>
  <outline>
    <contour>
      <point x="-7" y="0" type="line"/>
      <point x="626" y="0" type="line"/>
      <point x="631" y="27" type="line"/>
      <point x="459" y="710" type="line"/>
      <point x="412" y="710" type="line"/>
      <point x="-2" y="27" type="line"/>
    </contour>
    <contour>
      <point x="44" y="32" type="line"/>
      <point x="429" y="674" type="line"/>
      <point x="588" y="32" type="line"/>
    </contour>
  </outline>
</glyph>
<glyph name="endash" format="1">
  <advance width="589"/>
  <unicode hex="2013"/>
  <outline>
    <contour>
      <point x="78" y="330" type="line"/>
      <point x="72" y="300" type="line"/>
      <point x="521" y="300" type="line"/>
      <point x="527" y="330" type="line"/>
    </contour>
  </outline>
</glyph>
<glyph name="perthousand" format="1">
  <advance width="1095"/>
  <unicode hex="2030"/>
  <outline>
    <contour>
      <point x="219" y="720" type="curve" smooth="yes"/>
      <point x="129" y="720"/>
      <point x="59" y="637"/>
      <point x="59" y="522" type="curve" smooth="yes"/>
      <point x="59" y="448"/>
      <point x="106" y="382"/>
      <point x="186" y="382" type="curve" smooth="yes"/>
      <point x="276" y="382"/>
      <point x="346" y="465"/>
      <point x="346" y="580" type="curve" smooth="yes"/>
      <point x="346" y="654"/>
      <point x="299" y="720"/>
    </contour>
    <contour>
      <point x="219" y="690" type="curve" smooth="yes"/>
      <point x="270" y="690"/>
      <point x="304" y="648"/>
      <point x="304" y="580" type="curve" smooth="yes"/>
      <point x="304" y="495"/>
      <point x="261" y="412"/>
      <point x="186" y="412" type="curve"/>
      <point x="135" y="412"/>
      <point x="101" y="454"/>
      <point x="101" y="522" type="curve" smooth="yes"/>
      <point x="101" y="607"/>
      <point x="144" y="690"/>
    </contour>
    <contour>
      <point x="564" y="328" type="curve" smooth="yes"/>
      <point x="474" y="328"/>
      <point x="404" y="245"/>
      <point x="404" y="130" type="curve" smooth="yes"/>
      <point x="404" y="56"/>
      <point x="451" y="-10"/>
      <point x="531" y="-10" type="curve" smooth="yes"/>
      <point x="621" y="-10"/>
      <point x="691" y="73"/>
      <point x="691" y="188" type="curve" smooth="yes"/>
      <point x="691" y="262"/>
      <point x="644" y="328"/>
    </contour>
    <contour>
      <point x="932" y="328" type="curve" smooth="yes"/>
      <point x="842" y="328"/>
      <point x="772" y="245"/>
      <point x="772" y="130" type="curve" smooth="yes"/>
      <point x="772" y="56"/>
      <point x="819" y="-10"/>
      <point x="899" y="-10" type="curve" smooth="yes"/>
      <point x="989" y="-10"/>
      <point x="1059" y="73"/>
      <point x="1059" y="188" type="curve" smooth="yes"/>
      <point x="1059" y="262"/>
      <point x="1012" y="328"/>
    </contour>
    <contour>
      <point x="564" y="298" type="curve" smooth="yes"/>
      <point x="615" y="298"/>
      <point x="649" y="256"/>
      <point x="649" y="188" type="curve" smooth="yes"/>
      <point x="649" y="103"/>
      <point x="606" y="20"/>
      <point x="531" y="20" type="curve"/>
      <point x="480" y="20"/>
      <point x="446" y="62"/>
      <point x="446" y="130" type="curve" smooth="yes"/>
      <point x="446" y="215"/>
      <point x="489" y="298"/>
    </contour>
    <contour>
      <point x="932" y="298" type="curve" smooth="yes"/>
      <point x="983" y="298"/>
      <point x="1017" y="256"/>
      <point x="1017" y="188" type="curve" smooth="yes"/>
      <point x="1017" y="103"/>
      <point x="974" y="20"/>
      <point x="899" y="20" type="curve"/>
      <point x="848" y="20"/>
      <point x="814" y="62"/>
      <point x="814" y="130" type="curve" smooth="yes"/>
      <point x="814" y="215"/>
      <point x="857" y="298"/>
    </contour>
    <component base="fraction" xOffset="155"/>
  </outline>
</glyph>
<glyph name="uni20B4" format="1">
  <advance width="560"/>
  <unicode hex="20B4"/>
  <outline>
    <contour>
      <point x="49" y="456" type="line"/>
      <point x="44" y="426" type="line"/>
      <point x="558" y="426" type="line"/>
      <point x="563" y="456" type="line"/>
      <point x="468" y="456" type="line"/>
      <point x="495" y="485"/>
      <point x="516" y="526"/>
      <point x="516" y="578" type="curve" smooth="yes"/>
      <point x="516" y="662"/>
      <point x="449" y="720"/>
      <point x="341" y="720" type="curve" smooth="yes"/>
      <point x="256" y="720"/>
      <point x="191" y="683"/>
      <point x="161" y="653" type="curve"/>
      <point x="146" y="568" type="line"/>
      <point x="194" y="568" type="line"/>
      <point x="207" y="647" type="line"/>
      <point x="238" y="672"/>
      <point x="281" y="690"/>
      <point x="335" y="690" type="curve" smooth="yes"/>
      <point x="433" y="690"/>
      <point x="476" y="641"/>
      <point x="476" y="580" type="curve" smooth="yes"/>
      <point x="476" y="525"/>
      <point x="450" y="482"/>
      <point x="416" y="456" type="curve"/>
    </contour>
    <contour>
      <point x="254" y="-10" type="curve" smooth="yes"/>
      <point x="345" y="-10"/>
      <point x="415" y="36"/>
      <point x="457" y="79" type="curve"/>
      <point x="472" y="166" type="line"/>
      <point x="424" y="166" type="line"/>
      <point x="409" y="80" type="line"/>
      <point x="369" y="44"/>
      <point x="317" y="20"/>
      <point x="254" y="20" type="curve" smooth="yes"/>
      <point x="149" y="20"/>
      <point x="86" y="72"/>
      <point x="86" y="158" type="curve" smooth="yes"/>
      <point x="86" y="208"/>
      <point x="110" y="256"/>
      <point x="158" y="286" type="curve"/>
      <point x="533" y="286" type="line"/>
      <point x="538" y="316" type="line"/>
      <point x="24" y="316" type="line"/>
      <point x="19" y="286" type="line"/>
      <point x="102" y="286" type="line"/>
      <point x="65" y="253"/>
      <point x="46" y="210"/>
      <point x="46" y="158" type="curve" smooth="yes"/>
      <point x="46" y="59"/>
      <point x="122" y="-10"/>
    </contour>
  </outline>
</glyph>
<glyph name="manat" format="1">
  <advance width="560"/>
  <unicode hex="20BC"/>
  <outline>
    <contour>
      <point x="344" y="720" type="line"/>
      <point x="321" y="589" type="line"/>
      <point x="162" y="575"/>
      <point x="45" y="374"/>
      <point x="-21" y="0" type="curve"/>
      <point x="22" y="0" type="line"/>
      <point x="84" y="367"/>
      <point x="184" y="543"/>
      <point x="316" y="559" type="curve"/>
      <point x="243" y="144" type="line"/>
      <point x="279" y="144" type="line"/>
      <point x="352" y="559" type="line"/>
      <point x="483" y="546"/>
      <point x="518" y="370"/>
      <point x="456" y="0" type="curve"/>
      <point x="499" y="0" type="line"/>
      <point x="562" y="368"/>
      <point x="507" y="574"/>
      <point x="357" y="589" type="curve"/>
      <point x="380" y="720" type="line"/>
    </contour>
  </outline>
</glyph>
<glyph name="ruble" format="1">
  <advance width="561"/>
  <unicode hex="20BD"/>
  <outline>
    <contour>
      <point x="54" y="375" type="line"/>
      <point x="48" y="345" type="line"/>
      <point x="144" y="345" type="line"/>
      <point x="122" y="217" type="line"/>
      <point x="26" y="217" type="line"/>
      <point x="20" y="187" type="line"/>
      <point x="116" y="187" type="line"/>
      <point x="95" y="66" type="line" smooth="yes"/>
      <point x="90" y="37"/>
      <point x="53" y="30"/>
      <point x="4" y="30" type="curve" smooth="yes"/>
      <point x="-7" y="30" type="line"/>
      <point x="-13" y="0" type="line"/>
      <point x="227" y="0" type="line"/>
      <point x="233" y="30" type="line"/>
      <point x="206" y="30" type="line" smooth="yes"/>
      <point x="172" y="30"/>
      <point x="129" y="33"/>
      <point x="130" y="40" type="curve" smooth="yes"/>
      <point x="156" y="187" type="line"/>
      <point x="353" y="187" type="line"/>
      <point x="359" y="217" type="line"/>
      <point x="161" y="217" type="line"/>
      <point x="184" y="345" type="line"/>
      <point x="317" y="345" type="line" smooth="yes"/>
      <point x="499" y="345"/>
      <point x="572" y="432"/>
      <point x="572" y="548" type="curve" smooth="yes"/>
      <point x="572" y="642"/>
      <point x="506" y="710"/>
      <point x="348" y="710" type="curve" smooth="yes"/>
      <point x="113" y="710" type="line"/>
      <point x="107" y="680" type="line"/>
      <point x="118" y="680" type="line" smooth="yes"/>
      <point x="167" y="680"/>
      <point x="202" y="673"/>
      <point x="197" y="644" type="curve" smooth="yes"/>
      <point x="150" y="375" type="line"/>
    </contour>
    <contour>
      <point x="243" y="680" type="line"/>
      <point x="345" y="680" type="line" smooth="yes"/>
      <point x="477" y="680"/>
      <point x="529" y="628"/>
      <point x="529" y="548" type="curve" smooth="yes"/>
      <point x="529" y="518"/>
      <point x="524" y="491"/>
      <point x="514" y="467" type="curve" smooth="yes"/>
      <point x="489" y="409"/>
      <point x="429" y="375"/>
      <point x="321" y="375" type="curve" smooth="yes"/>
      <point x="189" y="375" type="line"/>
    </contour>
  </outline>
</glyph>
<glyph name="partialdiff" format="1">
  <advance width="547"/>
  <unicode hex="2202"/>
  <outline>
    <contour>
      <point x="231" y="-12" type="curve" smooth="yes"/>
      <point x="389" y="-12"/>
      <point x="492" y="199"/>
      <point x="492" y="457" type="curve" smooth="yes"/>
      <point x="492" y="665"/>
      <point x="416" y="748"/>
      <point x="300" y="748" type="curve" smooth="yes"/>
      <point x="245" y="748"/>
      <point x="196" y="727"/>
      <point x="162" y="703" type="curve"/>
      <point x="177" y="678" type="line"/>
      <point x="205" y="696"/>
      <point x="248" y="718"/>
      <point x="295" y="718" type="curve" smooth="yes"/>
      <point x="385" y="718"/>
      <point x="449" y="647"/>
      <point x="449" y="489" type="curve" smooth="yes"/>
      <point x="449" y="485"/>
      <point x="449" y="481"/>
      <point x="449" y="478" type="curve"/>
      <point x="426" y="496"/>
      <point x="382" y="518"/>
      <point x="319" y="518" type="curve" smooth="yes"/>
      <point x="180" y="518"/>
      <point x="65" y="379"/>
      <point x="65" y="197" type="curve" smooth="yes"/>
      <point x="65" y="65"/>
      <point x="130" y="-12"/>
    </contour>
    <contour>
      <point x="108" y="203" type="curve" smooth="yes"/>
      <point x="108" y="357"/>
      <point x="196" y="488"/>
      <point x="319" y="488" type="curve" smooth="yes"/>
      <point x="373" y="488"/>
      <point x="415" y="468"/>
      <point x="448" y="442" type="curve"/>
      <point x="439" y="219"/>
      <point x="365" y="18"/>
      <point x="231" y="18" type="curve" smooth="yes"/>
      <point x="146" y="18"/>
      <point x="108" y="84"/>
    </contour>
  </outline>
</glyph>
<glyph name="radical" format="1">
  <advance width="586"/>
  <unicode hex="221A"/>
  <outline>
    <contour>
      <point x="62" y="328" type="line"/>
      <point x="153" y="328" type="line"/>
      <point x="224" y="0" type="line"/>
      <point x="264" y="0" type="line"/>
      <point x="627" y="710" type="line"/>
      <point x="589" y="710" type="line"/>
      <point x="254" y="47" type="line"/>
      <point x="188" y="358" type="line"/>
      <point x="68" y="358" type="line"/>
    </contour>
  </outline>
</glyph>
<glyph name="approxequal" format="1">
  <advance width="560"/>
  <unicode hex="2248"/>
  <outline>
    <contour>
      <point x="399" y="359" type="curve" smooth="yes"/>
      <point x="328" y="359"/>
      <point x="307" y="454"/>
      <point x="216" y="454" type="curve" smooth="yes"/>
      <point x="149" y="454"/>
      <point x="112" y="407"/>
      <point x="92" y="341" type="curve"/>
      <point x="121" y="332" type="line"/>
      <point x="136" y="375"/>
      <point x="156" y="422"/>
      <point x="214" y="422" type="curve"/>
      <point x="278" y="422"/>
      <point x="305" y="327"/>
      <point x="396" y="327" type="curve" smooth="yes"/>
      <point x="459" y="327"/>
      <point x="490" y="375"/>
      <point x="513" y="443" type="curve"/>
      <point x="485" y="453" type="line"/>
      <point x="471" y="417"/>
      <point x="453" y="359"/>
    </contour>
    <contour>
      <point x="363" y="152" type="curve" smooth="yes"/>
      <point x="292" y="152"/>
      <point x="271" y="247"/>
      <point x="180" y="247" type="curve" smooth="yes"/>
      <point x="113" y="247"/>
      <point x="76" y="200"/>
      <point x="56" y="134" type="curve"/>
      <point x="85" y="125" type="line"/>
      <point x="100" y="168"/>
      <point x="120" y="215"/>
      <point x="178" y="215" type="curve" smooth="yes"/>
      <point x="242" y="215"/>
      <point x="269" y="120"/>
      <point x="360" y="120" type="curve" smooth="yes"/>
      <point x="423" y="120"/>
      <point x="454" y="168"/>
      <point x="477" y="236" type="curve"/>
      <point x="449" y="246" type="line"/>
      <point x="435" y="210"/>
      <point x="417" y="152"/>
    </contour>
  </outline>
</glyph>
<glyph name="notequal" format="1">
  <advance width="560"/>
  <unicode hex="2260"/>
  <outline>
    <contour>
      <point x="482" y="567" type="line"/>
      <point x="73" y="88" type="line"/>
      <point x="110" y="88" type="line"/>
      <point x="519" y="567" type="line"/>
    </contour>
    <contour>
      <point x="502" y="432" type="line"/>
      <point x="128" y="432" type="line"/>
      <point x="122" y="402" type="line"/>
      <point x="496" y="402" type="line"/>
    </contour>
    <contour>
      <point x="471" y="253" type="line"/>
      <point x="97" y="253" type="line"/>
      <point x="91" y="223" type="line"/>
      <point x="465" y="223" type="line"/>
    </contour>
  </outline>
</glyph>
<glyph name="lozenge" format="1">
  <advance width="642"/>
  <unicode hex="25CA"/>
  <outline>
    <contour>
      <point x="55" y="342" type="line"/>
      <point x="308" y="0" type="line"/>
      <point x="344" y="0" type="line"/>
      <point x="597" y="342" type="line"/>
      <point x="597" y="368" type="line"/>
      <point x="344" y="710" type="line"/>
      <point x="308" y="710" type="line"/>
      <point x="55" y="368" type="line"/>
    </contour>
    <contour>
      <point x="89" y="355" type="line"/>
      <point x="326" y="676" type="line"/>
      <point x="563" y="355" type="line"/>
      <point x="326" y="34" type="line"/>
    </contour>
  </outline>
</glyph>
<glyph name="acute.uc" format="1">
  <advance width="500"/>
  <outline>
    <contour>
      <point x="270" y="872" type="curve" smooth="yes"/>
      <point x="181" y="780" type="line"/>
      <point x="179" y="766" type="line"/>
      <point x="193" y="766" type="line"/>
      <point x="302" y="838" type="line" smooth="yes"/>
      <point x="331" y="858"/>
      <point x="343" y="866"/>
      <point x="343" y="883" type="curve" smooth="yes"/>
      <point x="343" y="894"/>
      <point x="336" y="906"/>
      <point x="319" y="906" type="curve" smooth="yes"/>
      <point x="302" y="906"/>
      <point x="289" y="893"/>
    </contour>
    <contour>
      <point x="187" y="727" type="move" name="_top"/>
    </contour>
  </outline>
</glyph>
<glyph name="acutedotaccent" format="1">
  <advance width="500"/>
  <outline>
    <component base="acute" xOffset="5.0"/>
    <component base="dotaccent" xOffset="15.0" yOffset="177.0"/>
    <contour>
      <point x="230.0" y="543.0" type="move" name="top"/>
    </contour>
  </outline>
</glyph>
<glyph name="baht.proportional" format="1">
  <advance width="606"/>
  <outline>
    <contour>
      <point x="351" y="710" type="curve" smooth="yes"/>
      <point x="99" y="710" type="line"/>
      <point x="94" y="680" type="line"/>
      <point x="112" y="680" type="line" smooth="yes"/>
      <point x="152" y="680"/>
      <point x="189" y="673"/>
      <point x="183" y="644" type="curve" smooth="yes"/>
      <point x="82" y="66" type="line" smooth="yes"/>
      <point x="76" y="37"/>
      <point x="37" y="30"/>
      <point x="-3" y="30" type="curve" smooth="yes"/>
      <point x="-21" y="30" type="line"/>
      <point x="-26" y="0" type="line"/>
      <point x="234" y="0" type="line"/>
      <point x="213" y="-120" type="line"/>
      <point x="247" y="-120" type="line"/>
      <point x="268" y="0" type="line"/>
      <point x="283" y="0" type="line" smooth="yes"/>
      <point x="452" y="0"/>
      <point x="535" y="80"/>
      <point x="535" y="211" type="curve" smooth="yes"/>
      <point x="535" y="291"/>
      <point x="491" y="353"/>
      <point x="389" y="372" type="curve"/>
      <point x="504" y="390"/>
      <point x="556" y="463"/>
      <point x="556" y="558" type="curve" smooth="yes"/>
      <point x="556" y="634"/>
      <point x="508" y="696"/>
      <point x="393" y="708" type="curve"/>
      <point x="407" y="790" type="line"/>
      <point x="373" y="790" type="line"/>
      <point x="359" y="710" type="line"/>
      <point x="356" y="710"/>
      <point x="354" y="710"/>
    </contour>
    <contour>
      <point x="178" y="386" type="line"/>
      <point x="230" y="680" type="line"/>
      <point x="350" y="680" type="line" smooth="yes"/>
      <point x="354" y="680" type="line"/>
      <point x="302" y="386" type="line"/>
    </contour>
    <contour>
      <point x="514" y="558" type="curve" smooth="yes"/>
      <point x="514" y="477"/>
      <point x="474" y="391"/>
      <point x="336" y="386" type="curve"/>
      <point x="388" y="678" type="line"/>
      <point x="481" y="669"/>
      <point x="514" y="622"/>
    </contour>
    <contour>
      <point x="115" y="30" type="line"/>
      <point x="173" y="358" type="line"/>
      <point x="297" y="358" type="line"/>
      <point x="240" y="30" type="line"/>
    </contour>
    <contour>
      <point x="492" y="211" type="curve" smooth="yes"/>
      <point x="492" y="101"/>
      <point x="439" y="30"/>
      <point x="294" y="30" type="curve" smooth="yes"/>
      <point x="274" y="30" type="line"/>
      <point x="331" y="358" type="line"/>
      <point x="443" y="355"/>
      <point x="492" y="290"/>
    </contour>
  </outline>
</glyph>
<glyph name="blackuppointingtriangle" format="1">
  <advance width="645"/>
  <outline>
    <contour>
      <point x="60" y="91" type="line"/>
      <point x="595" y="91" type="line"/>
      <point x="327" y="464" type="line"/>
    </contour>
  </outline>
</glyph>
<glyph name="breve_acute" format="1">
  <advance width="510"/>
  <outline>
    <contour>
      <point x="319" y="878" type="curve" smooth="yes"/>
      <point x="245" y="757" type="line"/>
      <point x="243" y="743" type="line"/>
      <point x="256" y="743" type="line"/>
      <point x="359" y="848" type="line" smooth="yes"/>
      <point x="374" y="864"/>
      <point x="391" y="881"/>
      <point x="391" y="898" type="curve" smooth="yes"/>
      <point x="391" y="911"/>
      <point x="380" y="921"/>
      <point x="365" y="921" type="curve" smooth="yes"/>
      <point x="345" y="921"/>
      <point x="336" y="905"/>
    </contour>
    <contour>
      <point x="265" y="594" type="curve" smooth="yes"/>
      <point x="328" y="594"/>
      <point x="380" y="637"/>
      <point x="397" y="736" type="curve"/>
      <point x="370" y="736" type="line"/>
      <point x="354" y="662"/>
      <point x="318" y="637"/>
      <point x="269" y="637" type="curve" smooth="yes"/>
      <point x="201" y="637"/>
      <point x="181" y="670"/>
      <point x="183" y="736" type="curve"/>
      <point x="155" y="736" type="line"/>
      <point x="154" y="726"/>
      <point x="154" y="716"/>
      <point x="154" y="711" type="curve" smooth="yes"/>
      <point x="154" y="634"/>
      <point x="195" y="594"/>
    </contour>
    <contour>
      <point x="251" y="535" type="move" name="_top"/>
    </contour>
  </outline>
</glyph>
<glyph name="breve_grave.uc" format="1">
  <advance width="510"/>
  <outline>
    <contour>
      <point x="298" y="916" type="line"/>
      <point x="314" y="916" type="line"/>
      <point x="314" y="930" type="line"/>
      <point x="247" y="1019" type="line" smooth="yes"/>
      <point x="227" y="1045"/>
      <point x="219" y="1056"/>
      <point x="203" y="1056" type="curve" smooth="yes"/>
      <point x="187" y="1056"/>
      <point x="178" y="1045"/>
      <point x="178" y="1033" type="curve" smooth="yes"/>
      <point x="178" y="1020"/>
      <point x="189" y="1010"/>
      <point x="211" y="991" type="curve" smooth="yes"/>
    </contour>
    <contour>
      <point x="261" y="759" type="curve" smooth="yes"/>
      <point x="337" y="759"/>
      <point x="391" y="800"/>
      <point x="406" y="891" type="curve"/>
      <point x="378" y="891" type="line"/>
      <point x="360" y="824"/>
      <point x="332" y="799"/>
      <point x="261" y="799" type="curve" smooth="yes"/>
      <point x="197" y="799"/>
      <point x="171" y="825"/>
      <point x="174" y="891" type="curve"/>
      <point x="144" y="891" type="line"/>
      <point x="137" y="809"/>
      <point x="173" y="759"/>
    </contour>
    <contour>
      <point x="246" y="744" type="move" name="_top"/>
    </contour>
  </outline>
</glyph>
<glyph name="caron.uc" format="1">
  <advance width="500"/>
  <outline>
    <contour>
      <point x="204" y="763" type="line"/>
      <point x="273" y="763" type="line"/>
      <point x="404" y="887" type="line"/>
      <point x="406" y="897" type="line"/>
      <point x="386" y="897" type="line"/>
      <point x="245" y="796" type="line"/>
      <point x="139" y="897" type="line"/>
      <point x="118" y="897" type="line"/>
      <point x="116" y="887" type="line"/>
    </contour>
    <contour>
      <point x="195" y="694" type="move" name="_top"/>
    </contour>
  </outline>
</glyph>
<glyph name="caroncomb" format="1">
  <advance width="0"/>
  <outline>
    <component base="caron" xOffset="-525.0"/>
    <contour>
      <point x="5.0" y="525.0" type="move" name="_top"/>
    </contour>
  </outline>
</glyph>
<glyph name="circumflex_acute" format="1">
  <advance width="510"/>
  <outline>
    <contour>
      <point x="440" y="828" type="curve" smooth="yes"/>
      <point x="366" y="707" type="line"/>
      <point x="364" y="693" type="line"/>
      <point x="377" y="693" type="line"/>
      <point x="480" y="798" type="line" smooth="yes"/>
      <point x="495" y="814"/>
      <point x="512" y="831"/>
      <point x="512" y="848" type="curve" smooth="yes"/>
      <point x="512" y="861"/>
      <point x="501" y="871"/>
      <point x="486" y="871" type="curve" smooth="yes"/>
      <point x="466" y="871"/>
      <point x="457" y="855"/>
    </contour>
    <contour>
      <point x="294" y="739" type="line"/>
      <point x="231" y="739" type="line"/>
      <point x="108" y="607" type="line"/>
      <point x="106" y="597" type="line"/>
      <point x="126" y="597" type="line"/>
      <point x="258" y="706" type="line"/>
      <point x="347" y="597" type="line"/>
      <point x="369" y="597" type="line"/>
      <point x="371" y="607" type="line"/>
    </contour>
    <contour>
      <point x="235" y="558" type="move" name="_top"/>
    </contour>
  </outline>
</glyph>
<glyph name="circumflex_grave" format="1">
  <advance width="510"/>
  <outline>
    <contour>
      <point x="376" y="828" type="line" smooth="yes"/>
      <point x="359" y="855"/>
      <point x="350" y="871"/>
      <point x="330" y="871" type="curve" smooth="yes"/>
      <point x="315" y="871"/>
      <point x="304" y="861"/>
      <point x="304" y="848" type="curve" smooth="yes"/>
      <point x="304" y="831"/>
      <point x="321" y="814"/>
      <point x="336" y="798" type="curve" smooth="yes"/>
      <point x="439" y="693" type="line"/>
      <point x="452" y="693" type="line"/>
      <point x="450" y="707" type="line"/>
    </contour>
    <contour>
      <point x="304" y="739" type="line"/>
      <point x="241" y="739" type="line"/>
      <point x="118" y="607" type="line"/>
      <point x="116" y="597" type="line"/>
      <point x="136" y="597" type="line"/>
      <point x="268" y="706" type="line"/>
      <point x="357" y="597" type="line"/>
      <point x="379" y="597" type="line"/>
      <point x="381" y="607" type="line"/>
    </contour>
    <contour>
      <point x="244" y="564" type="move" name="_top"/>
    </contour>
  </outline>
</glyph>
<glyph name="circumflex_tilde" format="1">
  <advance width="500"/>
  <outline>
    <contour>
      <point x="223" y="889" type="curve" smooth="yes"/>
      <point x="179" y="889"/>
      <point x="154" y="861"/>
      <point x="134" y="791" type="curve"/>
      <point x="161" y="779" type="line"/>
      <point x="176" y="834"/>
      <point x="190" y="856"/>
      <point x="216" y="856" type="curve" smooth="yes"/>
      <point x="260" y="856"/>
      <point x="260" y="780"/>
      <point x="323" y="780" type="curve" smooth="yes"/>
      <point x="367" y="780"/>
      <point x="393" y="812"/>
      <point x="415" y="878" type="curve"/>
      <point x="387" y="889" type="line"/>
      <point x="371" y="844"/>
      <point x="357" y="812"/>
      <point x="330" y="812" type="curve" smooth="yes"/>
      <point x="289" y="812"/>
      <point x="288" y="889"/>
    </contour>
    <contour>
      <point x="300" y="729" type="line"/>
      <point x="233" y="729" type="line"/>
      <point x="114" y="607" type="line"/>
      <point x="112" y="597" type="line"/>
      <point x="132" y="597" type="line"/>
      <point x="261" y="697" type="line"/>
      <point x="353" y="597" type="line"/>
      <point x="375" y="597" type="line"/>
      <point x="377" y="607" type="line"/>
    </contour>
    <contour>
      <point x="239" y="551" type="move" name="_top"/>
    </contour>
  </outline>
</glyph>
<glyph name="circumflexcomb" format="1">
  <advance width="0"/>
  <outline>
    <component base="circumflex" xOffset="-528"/>
    <contour>
      <point x="5.0" y="529.0" type="move" name="_top"/>
    </contour>
  </outline>
</glyph>
<glyph name="commaaccent" format="1">
  <advance width="500"/>
  <outline>
    <contour>
      <point x="215" y="-263" type="line"/>
      <point x="281" y="-225"/>
      <point x="313" y="-166"/>
      <point x="313" y="-126" type="curve" smooth="yes"/>
      <point x="313" y="-101"/>
      <point x="298" y="-84"/>
      <point x="275" y="-84" type="curve" smooth="yes"/>
      <point x="254" y="-84"/>
      <point x="240" y="-99"/>
      <point x="240" y="-118" type="curve" smooth="yes"/>
      <point x="240" y="-138"/>
      <point x="255" y="-151"/>
      <point x="273" y="-151" type="curve" smooth="yes"/>
      <point x="277" y="-151"/>
      <point x="281" y="-150"/>
      <point x="285" y="-149" type="curve"/>
      <point x="275" y="-179"/>
      <point x="242" y="-214"/>
      <point x="193" y="-239" type="curve"/>
    </contour>
    <contour>
      <point x="241" y="33" type="move" name="_bottom"/>
    </contour>
  </outline>
</glyph>
<glyph name="dieresis_caron" format="1">
  <advance width="500"/>
  <outline>
    <component base="dieresiscaron" xOffset="5.0"/>
    <contour>
      <point x="279.0" y="526.0" type="move" name="_top"/>
    </contour>
  </outline>
</glyph>
<glyph name="dieresis_macron.uc" format="1">
  <advance width="519"/>
  <outline>
    <contour>
      <point x="173.0" y="781" type="curve" smooth="yes"/>
      <point x="196.0" y="781"/>
      <point x="213.0" y="795"/>
      <point x="213.0" y="821" type="curve" smooth="yes"/>
      <point x="213.0" y="847"/>
      <point x="196.0" y="861"/>
      <point x="173.0" y="861" type="curve" smooth="yes"/>
      <point x="150.0" y="861"/>
      <point x="133.0" y="847"/>
      <point x="133.0" y="821" type="curve" smooth="yes"/>
      <point x="133.0" y="795"/>
      <point x="150.0" y="781"/>
    </contour>
    <contour>
      <point x="376.0" y="781" type="curve" smooth="yes"/>
      <point x="399.0" y="781"/>
      <point x="416.0" y="795"/>
      <point x="416.0" y="821" type="curve" smooth="yes"/>
      <point x="416.0" y="847"/>
      <point x="399.0" y="861"/>
      <point x="376.0" y="861" type="curve" smooth="yes"/>
      <point x="353.0" y="861"/>
      <point x="336.0" y="847"/>
      <point x="336.0" y="821" type="curve" smooth="yes"/>
      <point x="336.0" y="795"/>
      <point x="353.0" y="781"/>
    </contour>
    <contour>
      <point x="165" y="962" type="line"/>
      <point x="159" y="932" type="line"/>
      <point x="409" y="932" type="line"/>
      <point x="415" y="962" type="line"/>
    </contour>
    <contour>
      <point x="264.0" y="694.0" type="move" name="_top"/>
    </contour>
  </outline>
</glyph>
<glyph name="eight.old" format="1">
  <advance width="560"/>
  <outline>
    <contour>
      <point x="48" y="187" type="curve" smooth="yes"/>
      <point x="48" y="74"/>
      <point x="147" y="-10"/>
      <point x="276" y="-10" type="curve" smooth="yes"/>
      <point x="412" y="-10"/>
      <point x="510" y="80"/>
      <point x="510" y="197" type="curve" smooth="yes"/>
      <point x="510" y="273"/>
      <point x="460" y="343"/>
      <point x="375" y="373" type="curve"/>
      <point x="469" y="391"/>
      <point x="535" y="461"/>
      <point x="535" y="551" type="curve" smooth="yes"/>
      <point x="535" y="648"/>
      <point x="452" y="720"/>
      <point x="348" y="720" type="curve" smooth="yes"/>
      <point x="225" y="720"/>
      <point x="142" y="637"/>
      <point x="142" y="535" type="curve" smooth="yes"/>
      <point x="142" y="463"/>
      <point x="187" y="410"/>
      <point x="246" y="385" type="curve"/>
      <point x="122" y="370"/>
      <point x="48" y="284"/>
    </contour>
    <contour>
      <point x="327" y="391" type="curve" smooth="yes"/>
      <point x="253" y="391"/>
      <point x="183" y="444"/>
      <point x="183" y="535" type="curve" smooth="yes"/>
      <point x="183" y="544"/>
      <point x="184" y="552"/>
      <point x="186" y="562" type="curve" smooth="yes"/>
      <point x="202" y="648"/>
      <point x="268" y="690"/>
      <point x="348" y="690" type="curve" smooth="yes"/>
      <point x="430" y="690"/>
      <point x="494" y="635"/>
      <point x="494" y="551" type="curve" smooth="yes"/>
      <point x="494" y="541"/>
      <point x="493" y="528"/>
      <point x="491" y="517" type="curve" smooth="yes"/>
      <point x="476" y="433"/>
      <point x="404" y="391"/>
    </contour>
    <contour>
      <point x="276" y="20" type="curve" smooth="yes"/>
      <point x="168" y="20"/>
      <point x="91" y="90"/>
      <point x="91" y="187" type="curve" smooth="yes"/>
      <point x="91" y="198"/>
      <point x="92" y="208"/>
      <point x="94" y="219" type="curve" smooth="yes"/>
      <point x="111" y="313"/>
      <point x="187" y="361"/>
      <point x="285" y="361" type="curve"/>
      <point x="402" y="361"/>
      <point x="467" y="290"/>
      <point x="467" y="197" type="curve" smooth="yes"/>
      <point x="467" y="186"/>
      <point x="465" y="168"/>
      <point x="461" y="154" type="curve" smooth="yes"/>
      <point x="436" y="67"/>
      <point x="373" y="20"/>
    </contour>
  </outline>
</glyph>
<glyph name="f_f.short" format="1">
  <advance width="643"/>
  <outline>
    <contour>
      <point x="92" y="-223" type="line"/>
      <point x="189" y="481" type="line"/>
      <point x="454" y="481" type="line"/>
      <point x="364" y="-223" type="line"/>
      <point x="398" y="-223" type="line"/>
      <point x="495" y="481" type="line"/>
      <point x="655" y="481" type="line"/>
      <point x="659" y="508" type="line"/>
      <point x="499" y="508" type="line"/>
      <point x="512" y="601" type="line" smooth="yes"/>
      <point x="526" y="701"/>
      <point x="563" y="722"/>
      <point x="612" y="722" type="curve" smooth="yes"/>
      <point x="646" y="722"/>
      <point x="674" y="709"/>
      <point x="681" y="707" type="curve"/>
      <point x="687" y="739" type="line"/>
      <point x="680" y="742"/>
      <point x="655" y="752"/>
      <point x="612" y="752" type="curve" smooth="yes"/>
      <point x="551" y="752"/>
      <point x="485" y="722"/>
      <point x="470" y="607" type="curve" smooth="yes"/>
      <point x="457" y="508" type="line"/>
      <point x="193" y="508" type="line"/>
      <point x="204" y="586" type="line" smooth="yes"/>
      <point x="217" y="677"/>
      <point x="255" y="707"/>
      <point x="320" y="707" type="curve" smooth="yes"/>
      <point x="361" y="707"/>
      <point x="394" y="691"/>
      <point x="403" y="688" type="curve"/>
      <point x="409" y="720" type="line"/>
      <point x="402" y="724"/>
      <point x="371" y="737"/>
      <point x="320" y="737" type="curve" smooth="yes"/>
      <point x="243" y="737"/>
      <point x="176" y="698"/>
      <point x="162" y="592" type="curve" smooth="yes"/>
      <point x="151" y="508" type="line"/>
      <point x="54" y="508" type="line"/>
      <point x="50" y="481" type="line"/>
      <point x="148" y="481" type="line"/>
      <point x="58" y="-223" type="line"/>
    </contour>
  </outline>
</glyph>
<glyph name="five.old" format="1">
  <advance width="560"/>
  <outline>
    <contour>
      <point x="254" y="-151" type="curve" smooth="yes"/>
      <point x="409" y="-151"/>
      <point x="510" y="-38"/>
      <point x="510" y="105" type="curve" smooth="yes"/>
      <point x="510" y="229"/>
      <point x="427" y="305"/>
      <point x="310" y="305" type="curve" smooth="yes"/>
      <point x="242" y="305"/>
      <point x="185" y="279"/>
      <point x="140" y="229" type="curve"/>
      <point x="191" y="511" type="line"/>
      <point x="514" y="511" type="line"/>
      <point x="529" y="548" type="line"/>
      <point x="166" y="548" type="line"/>
      <point x="100" y="179" type="line"/>
      <point x="126" y="179" type="line"/>
      <point x="173" y="244"/>
      <point x="229" y="275"/>
      <point x="310" y="275" type="curve" smooth="yes"/>
      <point x="412" y="275"/>
      <point x="467" y="206"/>
      <point x="467" y="105" type="curve" smooth="yes"/>
      <point x="467" y="-25"/>
      <point x="386" y="-121"/>
      <point x="254" y="-121" type="curve" smooth="yes"/>
      <point x="144" y="-121"/>
      <point x="79" y="-50"/>
      <point x="56" y="22" type="curve"/>
      <point x="29" y="1" type="line"/>
      <point x="54" y="-80"/>
      <point x="131" y="-151"/>
    </contour>
  </outline>
</glyph>
<glyph name="florin" format="1">
  <advance width="560.0"/>
  <outline>
    <contour>
      <point x="197" y="40" type="curve" smooth="yes"/>
      <point x="305" y="478" type="line"/>
      <point x="502" y="478" type="line"/>
      <point x="510" y="508" type="line"/>
      <point x="312" y="508" type="line"/>
      <point x="329" y="576" type="line" smooth="yes"/>
      <point x="356" y="685"/>
      <point x="402" y="722"/>
      <point x="482" y="722" type="curve" smooth="yes"/>
      <point x="529" y="722"/>
      <point x="561" y="707"/>
      <point x="581" y="699" type="curve"/>
      <point x="589" y="731" type="line"/>
      <point x="563" y="742"/>
      <point x="526" y="752"/>
      <point x="482" y="752" type="curve" smooth="yes"/>
      <point x="383" y="752"/>
      <point x="320" y="701"/>
      <point x="292" y="585" type="curve" smooth="yes"/>
      <point x="273" y="508" type="line"/>
      <point x="154" y="508" type="line"/>
      <point x="146" y="478" type="line"/>
      <point x="266" y="478" type="line"/>
      <point x="160" y="41" type="line" smooth="yes"/>
      <point x="113" y="-153"/>
      <point x="51" y="-206"/>
      <point x="-29" y="-206" type="curve" smooth="yes"/>
      <point x="-78" y="-206"/>
      <point x="-113" y="-186"/>
      <point x="-130" y="-178" type="curve"/>
      <point x="-138" y="-210" type="line"/>
      <point x="-121" y="-220"/>
      <point x="-82" y="-236"/>
      <point x="-29" y="-236" type="curve" smooth="yes"/>
      <point x="76" y="-236"/>
      <point x="146" y="-165"/>
    </contour>
  </outline>
</glyph>
<glyph name="four.old" format="1">
  <advance width="560"/>
  <outline>
    <contour>
      <point x="17" y="51" type="line"/>
      <point x="350" y="51" type="line"/>
      <point x="317" y="-138" type="line"/>
      <point x="358" y="-138" type="line"/>
      <point x="391" y="51" type="line"/>
      <point x="518" y="51" type="line"/>
      <point x="524" y="86" type="line"/>
      <point x="397" y="86" type="line"/>
      <point x="478" y="548" type="line"/>
      <point x="418" y="548" type="line"/>
      <point x="24" y="89" type="line"/>
    </contour>
    <contour>
      <point x="64" y="86" type="line"/>
      <point x="432" y="516" type="line"/>
      <point x="356" y="86" type="line"/>
    </contour>
  </outline>
</glyph>
<glyph name="four.sup" format="1">
  <advance width="325"/>
  <outline>
    <contour>
      <point x="55" y="458" type="line"/>
      <point x="233" y="458" type="line"/>
      <point x="217" y="369" type="line"/>
      <point x="257" y="369" type="line"/>
      <point x="273" y="458" type="line"/>
      <point x="337" y="458" type="line"/>
      <point x="342" y="491" type="line"/>
      <point x="278" y="491" type="line"/>
      <point x="317" y="710" type="line"/>
      <point x="264" y="710" type="line"/>
      <point x="61" y="494" type="line"/>
    </contour>
    <contour>
      <point x="99" y="491" type="line"/>
      <point x="270" y="674" type="line"/>
      <point x="238" y="491" type="line"/>
    </contour>
  </outline>
</glyph>
<glyph name="franc.proportional" format="1">
  <advance width="570"/>
  <outline>
    <contour>
      <point x="3" y="0" type="line"/>
      <point x="251" y="0" type="line"/>
      <point x="257" y="30" type="line"/>
      <point x="240" y="30" type="line" smooth="yes"/>
      <point x="193" y="30"/>
      <point x="145" y="31"/>
      <point x="151" y="66" type="curve" smooth="yes"/>
      <point x="173" y="189" type="line"/>
      <point x="339" y="189" type="line"/>
      <point x="344" y="219" type="line"/>
      <point x="178" y="219" type="line"/>
      <point x="204" y="369" type="line"/>
      <point x="452" y="366" type="line"/>
      <point x="457" y="396" type="line"/>
      <point x="209" y="393" type="line"/>
      <point x="259" y="680" type="line"/>
      <point x="421" y="680" type="line" smooth="yes"/>
      <point x="507" y="680"/>
      <point x="542" y="673"/>
      <point x="539" y="637" type="curve" smooth="yes"/>
      <point x="532" y="547" type="line"/>
      <point x="558" y="547" type="line"/>
      <point x="587" y="710" type="line"/>
      <point x="129" y="710" type="line"/>
      <point x="123" y="680" type="line"/>
      <point x="134" y="680" type="line" smooth="yes"/>
      <point x="183" y="680"/>
      <point x="218" y="673"/>
      <point x="213" y="644" type="curve" smooth="yes"/>
      <point x="138" y="219" type="line"/>
      <point x="42" y="219" type="line"/>
      <point x="37" y="189" type="line"/>
      <point x="133" y="189" type="line"/>
      <point x="111" y="66" type="line" smooth="yes"/>
      <point x="106" y="37"/>
      <point x="65" y="30"/>
      <point x="20" y="30" type="curve" smooth="yes"/>
      <point x="9" y="30" type="line"/>
    </contour>
  </outline>
</glyph>
<glyph name="g.alt" format="1">
  <advance width="551"/>
  <outline>
    <contour>
      <point x="191" y="-236" type="curve" smooth="yes"/>
      <point x="216" y="-236" type="line" smooth="yes"/>
      <point x="361" y="-236"/>
      <point x="493" y="-174"/>
      <point x="493" y="-56" type="curve" smooth="yes"/>
      <point x="493" y="3"/>
      <point x="448" y="41"/>
      <point x="366" y="41" type="curve" smooth="yes"/>
      <point x="156" y="41" type="line" smooth="yes"/>
      <point x="111" y="41"/>
      <point x="88" y="58"/>
      <point x="88" y="87" type="curve" smooth="yes"/>
      <point x="88" y="122"/>
      <point x="124" y="158"/>
      <point x="183" y="179" type="curve"/>
      <point x="210" y="165"/>
      <point x="240" y="157"/>
      <point x="272" y="157" type="curve" smooth="yes"/>
      <point x="383" y="157"/>
      <point x="461" y="236"/>
      <point x="461" y="345" type="curve" smooth="yes"/>
      <point x="461" y="384"/>
      <point x="450" y="417"/>
      <point x="432" y="444" type="curve"/>
      <point x="474" y="485"/>
      <point x="518" y="483"/>
      <point x="558" y="479" type="curve"/>
      <point x="565" y="522" type="line"/>
      <point x="561" y="523"/>
      <point x="552" y="524"/>
      <point x="541" y="524" type="curve" smooth="yes"/>
      <point x="493" y="524"/>
      <point x="453" y="501"/>
      <point x="419" y="460" type="curve"/>
      <point x="386" y="497"/>
      <point x="338" y="518"/>
      <point x="285" y="518" type="curve" smooth="yes"/>
      <point x="175" y="518"/>
      <point x="96" y="439"/>
      <point x="96" y="330" type="curve" smooth="yes"/>
      <point x="96" y="272"/>
      <point x="121" y="226"/>
      <point x="158" y="196" type="curve"/>
      <point x="84" y="166"/>
      <point x="48" y="126"/>
      <point x="48" y="84" type="curve" smooth="yes"/>
      <point x="48" y="48"/>
      <point x="65" y="26"/>
      <point x="97" y="11" type="curve"/>
      <point x="22" y="-16"/>
      <point x="-12" y="-53"/>
      <point x="-12" y="-107" type="curve" smooth="yes"/>
      <point x="-12" y="-192"/>
      <point x="63" y="-236"/>
    </contour>
    <contour>
      <point x="272" y="187" type="curve" smooth="yes"/>
      <point x="203" y="187"/>
      <point x="138" y="233"/>
      <point x="138" y="330" type="curve" smooth="yes"/>
      <point x="138" y="427"/>
      <point x="201" y="488"/>
      <point x="285" y="488" type="curve" smooth="yes"/>
      <point x="355" y="488"/>
      <point x="419" y="442"/>
      <point x="419" y="345" type="curve" smooth="yes"/>
      <point x="419" y="248"/>
      <point x="357" y="187"/>
    </contour>
    <contour>
      <point x="194" y="-206" type="line" smooth="yes"/>
      <point x="78" y="-206"/>
      <point x="28" y="-170"/>
      <point x="28" y="-107" type="curve" smooth="yes"/>
      <point x="28" y="-56"/>
      <point x="65" y="-19"/>
      <point x="139" y="3" type="curve"/>
      <point x="363" y="3" type="line" smooth="yes"/>
      <point x="424" y="3"/>
      <point x="453" y="-21"/>
      <point x="453" y="-63" type="curve" smooth="yes"/>
      <point x="453" y="-152"/>
      <point x="348" y="-206"/>
      <point x="219" y="-206" type="curve" smooth="yes"/>
    </contour>
    <contour>
      <point x="263.0" y="545.0" type="move" name="top"/>
    </contour>
  </outline>
</glyph>
<glyph name="grave.uc" format="1">
  <advance width="500"/>
  <outline>
    <contour>
      <point x="311" y="766" type="line"/>
      <point x="327" y="766" type="line"/>
      <point x="327" y="780" type="line"/>
      <point x="260" y="869" type="line" smooth="yes"/>
      <point x="240" y="895"/>
      <point x="232" y="906"/>
      <point x="216" y="906" type="curve" smooth="yes"/>
      <point x="200" y="906"/>
      <point x="191" y="895"/>
      <point x="191" y="883" type="curve" smooth="yes"/>
      <point x="191" y="870"/>
      <point x="202" y="860"/>
      <point x="224" y="841" type="curve" smooth="yes"/>
    </contour>
    <contour>
      <point x="301" y="694" type="move" name="_top"/>
    </contour>
  </outline>
</glyph>
<glyph name="guillemotleft" format="1">
  <advance width="466"/>
  <outline>
    <contour>
      <point x="265" y="455" type="line"/>
      <point x="237" y="455" type="line"/>
      <point x="70" y="290" type="line"/>
      <point x="64" y="256" type="line"/>
      <point x="163" y="75" type="line"/>
      <point x="189" y="75" type="line"/>
      <point x="109" y="269" type="line"/>
    </contour>
    <contour>
      <point x="440" y="455" type="line"/>
      <point x="412" y="455" type="line"/>
      <point x="245" y="290" type="line"/>
      <point x="239" y="256" type="line"/>
      <point x="338" y="75" type="line"/>
      <point x="364" y="75" type="line"/>
      <point x="284" y="269" type="line"/>
    </contour>
  </outline>
</glyph>
<glyph name="horncomb" format="1">
  <advance width="0"/>
  <outline>
    <contour>
      <point x="-425" y="494" type="curve"/>
      <point x="-230" y="484"/>
      <point x="-186" y="558"/>
      <point x="-178" y="685" type="curve"/>
      <point x="-218" y="685" type="line"/>
      <point x="-227" y="555"/>
      <point x="-265" y="518"/>
      <point x="-443" y="518" type="curve"/>
      <point x="-438" y="513"/>
      <point x="-430" y="498"/>
    </contour>
    <contour>
      <point x="5.0" y="444.0" type="move" name="_top"/>
    </contour>
  </outline>
</glyph>
<glyph name="kgreenlandic" format="1">
  <advance width="503"/>
  <outline>
    <contour>
      <point x="201" y="508" type="line"/>
      <point x="77" y="508" type="line"/>
      <point x="72" y="483" type="line"/>
      <point x="82" y="481" type="line" smooth="yes"/>
      <point x="130" y="471"/>
      <point x="153" y="465"/>
      <point x="148" y="436" type="curve" smooth="yes"/>
      <point x="70" y="0" type="line"/>
      <point x="110" y="0" type="line"/>
    </contour>
    <contour>
      <point x="466" y="12" type="curve"/>
      <point x="471" y="40" type="line"/>
      <point x="467" y="39"/>
      <point x="440" y="23"/>
      <point x="415" y="23" type="curve" smooth="yes"/>
      <point x="388" y="23"/>
      <point x="367" y="49"/>
      <point x="336" y="113" type="curve" smooth="yes"/>
      <point x="249" y="295" type="line"/>
      <point x="503" y="498" type="line"/>
      <point x="503" y="508" type="line"/>
      <point x="461" y="508" type="line"/>
      <point x="212" y="292" type="line"/>
      <point x="211" y="287" type="line"/>
      <point x="300" y="99" type="line" smooth="yes"/>
      <point x="340" y="15"/>
      <point x="365" y="-7"/>
      <point x="410" y="-7" type="curve" smooth="yes"/>
      <point x="435" y="-7"/>
      <point x="455" y="3"/>
    </contour>
  </outline>
</glyph>
<glyph name="lira.altprop" format="1">
  <advance width="598"/>
  <outline>
    <contour>
      <point x="5" y="0" type="line"/>
      <point x="499" y="0" type="line"/>
      <point x="526" y="168" type="line"/>
      <point x="499" y="168" type="line"/>
      <point x="474" y="73" type="line" smooth="yes"/>
      <point x="464" y="37"/>
      <point x="427" y="30"/>
      <point x="341" y="30" type="curve" smooth="yes"/>
      <point x="62" y="30" type="line"/>
      <point x="165" y="71"/>
      <point x="218" y="151"/>
      <point x="223" y="243" type="curve"/>
      <point x="417" y="243" type="line"/>
      <point x="422" y="273" type="line"/>
      <point x="223" y="273" type="line"/>
      <point x="220" y="315"/>
      <point x="211" y="356"/>
      <point x="202" y="398" type="curve"/>
      <point x="444" y="398" type="line"/>
      <point x="449" y="428" type="line"/>
      <point x="196" y="428" type="line"/>
      <point x="192" y="453"/>
      <point x="189" y="478"/>
      <point x="189" y="505" type="curve" smooth="yes"/>
      <point x="189" y="609"/>
      <point x="245" y="688"/>
      <point x="376" y="688" type="curve" smooth="yes"/>
      <point x="436" y="688"/>
      <point x="480" y="671"/>
      <point x="508" y="648" type="curve"/>
      <point x="495" y="570" type="line"/>
      <point x="543" y="570" type="line"/>
      <point x="558" y="659" type="line"/>
      <point x="531" y="684"/>
      <point x="471" y="718"/>
      <point x="376" y="718" type="curve" smooth="yes"/>
      <point x="220" y="718"/>
      <point x="146" y="623"/>
      <point x="146" y="505" type="curve" smooth="yes"/>
      <point x="146" y="478"/>
      <point x="149" y="453"/>
      <point x="153" y="428" type="curve"/>
      <point x="70" y="428" type="line"/>
      <point x="65" y="398" type="line"/>
      <point x="159" y="398" type="line"/>
      <point x="169" y="352"/>
      <point x="181" y="310"/>
      <point x="184" y="273" type="curve"/>
      <point x="43" y="273" type="line"/>
      <point x="38" y="243" type="line"/>
      <point x="185" y="243" type="line"/>
      <point x="180" y="136"/>
      <point x="115" y="73"/>
      <point x="11" y="35" type="curve"/>
    </contour>
  </outline>
</glyph>
<glyph name="macron_grave" format="1">
  <advance width="620"/>
  <outline>
    <contour>
      <point x="308" y="870" type="line" smooth="yes"/>
      <point x="291" y="897"/>
      <point x="282" y="913"/>
      <point x="262" y="913" type="curve" smooth="yes"/>
      <point x="247" y="913"/>
      <point x="236" y="903"/>
      <point x="236" y="890" type="curve" smooth="yes"/>
      <point x="236" y="873"/>
      <point x="253" y="856"/>
      <point x="268" y="840" type="curve" smooth="yes"/>
      <point x="371" y="735" type="line"/>
      <point x="384" y="735" type="line"/>
      <point x="382" y="749" type="line"/>
    </contour>
    <contour>
      <point x="198" y="689" type="line"/>
      <point x="192" y="659" type="line"/>
      <point x="442" y="659" type="line"/>
      <point x="448" y="689" type="line"/>
    </contour>
    <contour>
      <point x="319" y="526" type="move" name="_top"/>
    </contour>
  </outline>
</glyph>
<glyph name="macronbelow" format="1">
  <advance width="500"/>
  <outline>
    <contour>
      <point x="138" y="-115" type="line"/>
      <point x="132" y="-145" type="line"/>
      <point x="382" y="-145" type="line"/>
      <point x="388" y="-115" type="line"/>
    </contour>
    <contour>
      <point x="255.0" y="-20.0" type="move" name="_bottom"/>
    </contour>
  </outline>
</glyph>
<glyph name="macroncomb" format="1">
  <advance width="0"/>
  <outline>
    <component base="macron" xOffset="-529"/>
    <contour>
      <point x="5.0" y="526.0" type="move" name="_top"/>
    </contour>
  </outline>
</glyph>
<glyph name="nine.sup" format="1">
  <advance width="324"/>
  <outline>
    <contour>
      <point x="223.0" y="715.0" type="curve" smooth="yes"/>
      <point x="141.0" y="715.0"/>
      <point x="96.0" y="659.0"/>
      <point x="96.0" y="595.0" type="curve" smooth="yes"/>
      <point x="96.0" y="537.0"/>
      <point x="138.0" y="492.0"/>
      <point x="203.0" y="492.0" type="curve" smooth="yes"/>
      <point x="241.0" y="492.0"/>
      <point x="275.0" y="512.0"/>
      <point x="298.0" y="542.0" type="curve"/>
      <point x="285.0" y="454.0"/>
      <point x="223.0" y="395.0"/>
      <point x="103.0" y="381.0" type="curve"/>
      <point x="105.0" y="351.0" type="line"/>
      <point x="267.0" y="367.0"/>
      <point x="346.0" y="459.0"/>
      <point x="346.0" y="582.0" type="curve" smooth="yes"/>
      <point x="346.0" y="671.0"/>
      <point x="292.0" y="715.0"/>
    </contour>
    <contour>
      <point x="141.0" y="595.0" type="curve" smooth="yes"/>
      <point x="141.0" y="644.0"/>
      <point x="168.0" y="685.0"/>
      <point x="223.0" y="685.0" type="curve" smooth="yes"/>
      <point x="267.0" y="685.0"/>
      <point x="301.0" y="654.0"/>
      <point x="301.0" y="582.0" type="curve" smooth="yes"/>
      <point x="301.0" y="580.0" type="line"/>
      <point x="276.0" y="541.0"/>
      <point x="246.0" y="523.0"/>
      <point x="210.0" y="523.0" type="curve" smooth="yes"/>
      <point x="167.0" y="523.0"/>
      <point x="141.0" y="554.0"/>
    </contour>
  </outline>
</glyph>
<glyph name="peso.proportional" format="1">
  <advance width="610"/>
  <outline>
    <contour>
      <point x="-8" y="0" type="line"/>
      <point x="232" y="0" type="line"/>
      <point x="238" y="30" type="line"/>
      <point x="211" y="30" type="line" smooth="yes"/>
      <point x="177" y="30"/>
      <point x="134" y="33"/>
      <point x="135" y="40" type="curve" smooth="yes"/>
      <point x="177" y="275" type="line"/>
      <point x="257" y="275" type="line" smooth="yes"/>
      <point x="438" y="275"/>
      <point x="527" y="360"/>
      <point x="540" y="480" type="curve"/>
      <point x="614" y="480" type="line"/>
      <point x="619" y="510" type="line"/>
      <point x="542" y="510" type="line"/>
      <point x="542" y="510"/>
      <point x="542" y="511"/>
      <point x="542" y="512" type="curve" smooth="yes"/>
      <point x="542" y="628"/>
      <point x="469" y="710"/>
      <point x="301" y="710" type="curve" smooth="yes"/>
      <point x="118" y="710" type="line"/>
      <point x="112" y="680" type="line"/>
      <point x="123" y="680" type="line" smooth="yes"/>
      <point x="172" y="680"/>
      <point x="207" y="673"/>
      <point x="202" y="644" type="curve" smooth="yes"/>
      <point x="178" y="510" type="line"/>
      <point x="82" y="510" type="line"/>
      <point x="77" y="480" type="line"/>
      <point x="173" y="480" type="line"/>
      <point x="100" y="66" type="line" smooth="yes"/>
      <point x="95" y="37"/>
      <point x="58" y="30"/>
      <point x="9" y="30" type="curve" smooth="yes"/>
      <point x="-2" y="30" type="line"/>
    </contour>
    <contour>
      <point x="300" y="680" type="line" smooth="yes"/>
      <point x="442" y="680"/>
      <point x="499" y="614"/>
      <point x="499" y="512" type="curve" smooth="yes"/>
      <point x="499" y="510" type="line"/>
      <point x="218" y="510" type="line"/>
      <point x="248" y="680" type="line"/>
    </contour>
    <contour>
      <point x="182" y="305" type="line"/>
      <point x="213" y="480" type="line"/>
      <point x="497" y="480" type="line"/>
      <point x="486" y="380"/>
      <point x="418" y="305"/>
      <point x="265" y="305" type="curve" smooth="yes"/>
    </contour>
  </outline>
</glyph>
<glyph name="six.den" format="1">
  <advance width="324"/>
  <outline>
    <contour>
      <point x="120" y="-6" type="curve" smooth="yes"/>
      <point x="205" y="-6"/>
      <point x="250" y="57"/>
      <point x="250" y="121" type="curve" smooth="yes"/>
      <point x="250" y="182"/>
      <point x="209" y="225"/>
      <point x="146" y="225" type="curve" smooth="yes"/>
      <point x="110" y="225"/>
      <point x="76" y="207"/>
      <point x="52" y="181" type="curve"/>
      <point x="75" y="256"/>
      <point x="143" y="318"/>
      <point x="251" y="328" type="curve"/>
      <point x="249" y="358" type="line"/>
      <point x="88" y="345"/>
      <point x="-2" y="235"/>
      <point x="-2" y="121" type="curve" smooth="yes"/>
      <point x="-2" y="35"/>
      <point x="52" y="-6"/>
    </contour>
    <contour>
      <point x="43" y="121" type="curve" smooth="yes"/>
      <point x="43" y="127"/>
      <point x="43" y="132"/>
      <point x="44" y="138" type="curve"/>
      <point x="70" y="176"/>
      <point x="103" y="194"/>
      <point x="139" y="194" type="curve" smooth="yes"/>
      <point x="180" y="194"/>
      <point x="205" y="165"/>
      <point x="205" y="121" type="curve" smooth="yes"/>
      <point x="205" y="72"/>
      <point x="176" y="24"/>
      <point x="120" y="24" type="curve" smooth="yes"/>
      <point x="77" y="24"/>
      <point x="43" y="52"/>
    </contour>
  </outline>
</glyph>
<glyph name="sterling.altprop" format="1">
  <advance width="599"/>
  <outline>
    <contour>
      <point x="5" y="0" type="line"/>
      <point x="495" y="0" type="line"/>
      <point x="522" y="168" type="line"/>
      <point x="495" y="168" type="line"/>
      <point x="470" y="73" type="line" smooth="yes"/>
      <point x="460" y="37"/>
      <point x="423" y="30"/>
      <point x="337" y="30" type="curve" smooth="yes"/>
      <point x="62" y="30" type="line"/>
      <point x="169" y="73"/>
      <point x="223" y="159"/>
      <point x="223" y="256" type="curve" smooth="yes"/>
      <point x="223" y="278"/>
      <point x="221" y="300"/>
      <point x="217" y="322" type="curve"/>
      <point x="432" y="322" type="line"/>
      <point x="438" y="352" type="line"/>
      <point x="212" y="352" type="line"/>
      <point x="202" y="402"/>
      <point x="189" y="451"/>
      <point x="189" y="505" type="curve" smooth="yes"/>
      <point x="189" y="609"/>
      <point x="245" y="688"/>
      <point x="376" y="688" type="curve" smooth="yes"/>
      <point x="436" y="688"/>
      <point x="480" y="671"/>
      <point x="508" y="648" type="curve"/>
      <point x="495" y="570" type="line"/>
      <point x="543" y="570" type="line"/>
      <point x="558" y="659" type="line"/>
      <point x="531" y="684"/>
      <point x="471" y="718"/>
      <point x="376" y="718" type="curve" smooth="yes"/>
      <point x="220" y="718"/>
      <point x="146" y="623"/>
      <point x="146" y="505" type="curve" smooth="yes"/>
      <point x="146" y="450"/>
      <point x="159" y="398"/>
      <point x="170" y="352" type="curve"/>
      <point x="55" y="352" type="line"/>
      <point x="49" y="322" type="line"/>
      <point x="176" y="322" type="line"/>
      <point x="181" y="298"/>
      <point x="185" y="276"/>
      <point x="185" y="256" type="curve" smooth="yes"/>
      <point x="185" y="141"/>
      <point x="119" y="75"/>
      <point x="11" y="35" type="curve"/>
    </contour>
  </outline>
</glyph>
<glyph name="tilde_macron.uc" format="1">
  <advance width="524"/>
  <outline>
    <contour>
      <point x="123.0" y="772" type="line"/>
      <point x="139.0" y="817"/>
      <point x="151.0" y="843"/>
      <point x="183.0" y="843" type="curve" smooth="yes"/>
      <point x="232.0" y="843"/>
      <point x="247.0" y="772"/>
      <point x="317.0" y="772" type="curve" smooth="yes"/>
      <point x="364.0" y="772"/>
      <point x="391.0" y="804"/>
      <point x="413.0" y="867" type="curve"/>
      <point x="387.0" y="878" type="line"/>
      <point x="368.0" y="830"/>
      <point x="352.0" y="805"/>
      <point x="323.0" y="805" type="curve" smooth="yes"/>
      <point x="270.0" y="805"/>
      <point x="259.0" y="876"/>
      <point x="189.0" y="876" type="curve" smooth="yes"/>
      <point x="139.0" y="876"/>
      <point x="116.0" y="844"/>
      <point x="97.0" y="784" type="curve"/>
    </contour>
    <contour>
      <point x="143.0" y="962.0" type="line"/>
      <point x="137.0" y="932.0" type="line"/>
      <point x="387.0" y="932.0" type="line"/>
      <point x="393.0" y="962.0" type="line"/>
    </contour>
    <contour>
      <point x="209" y="694" type="move" name="_top"/>
    </contour>
  </outline>
</glyph>
<glyph name="whiterightpointingtriangle" format="1">
  <advance width="573"/>
  <outline>
    <contour>
      <point x="135" y="545" type="line"/>
      <point x="135" y="10" type="line"/>
      <point x="508" y="277" type="line"/>
    </contour>
    <contour>
      <point x="190" y="442" type="line"/>
      <point x="421" y="278" type="line"/>
      <point x="190" y="113" type="line"/>
    </contour>
  </outline>
</glyph>
<glyph name="yen.proportional" format="1">
  <advance width="620"/>
  <outline>
    <contour>
      <point x="137" y="0" type="line"/>
      <point x="379" y="0" type="line"/>
      <point x="385" y="30" type="line"/>
      <point x="367" y="30" type="line" smooth="yes"/>
      <point x="318" y="30"/>
      <point x="285" y="37"/>
      <point x="290" y="66" type="curve" smooth="yes"/>
      <point x="309" y="177" type="line"/>
      <point x="494" y="177" type="line"/>
      <point x="499" y="207" type="line"/>
      <point x="315" y="207" type="line"/>
      <point x="334" y="314" type="line"/>
      <point x="518" y="314" type="line"/>
      <point x="523" y="344" type="line"/>
      <point x="342" y="344" type="line"/>
      <point x="555" y="639" type="line" smooth="yes"/>
      <point x="582" y="676"/>
      <point x="613" y="680"/>
      <point x="647" y="680" type="curve" smooth="yes"/>
      <point x="652" y="680" type="line"/>
      <point x="658" y="710" type="line"/>
      <point x="444" y="710" type="line"/>
      <point x="438" y="680" type="line"/>
      <point x="453" y="680" type="line" smooth="yes"/>
      <point x="491" y="680"/>
      <point x="535" y="673"/>
      <point x="533" y="662" type="curve"/>
      <point x="325" y="370" type="line"/>
      <point x="216" y="670" type="line"/>
      <point x="217" y="677"/>
      <point x="264" y="680"/>
      <point x="300" y="680" type="curve" smooth="yes"/>
      <point x="317" y="680" type="line"/>
      <point x="323" y="710" type="line"/>
      <point x="108" y="710" type="line"/>
      <point x="102" y="680" type="line"/>
      <point x="107" y="680" type="line" smooth="yes"/>
      <point x="141" y="680"/>
      <point x="169" y="681"/>
      <point x="179" y="654" type="curve" smooth="yes"/>
      <point x="294" y="344" type="line"/>
      <point x="113" y="344" type="line"/>
      <point x="108" y="314" type="line"/>
      <point x="294" y="314" type="line"/>
      <point x="275" y="207" type="line"/>
      <point x="89" y="207" type="line"/>
      <point x="84" y="177" type="line"/>
      <point x="269" y="177" type="line"/>
      <point x="250" y="66" type="line" smooth="yes"/>
      <point x="245" y="37"/>
      <point x="206" y="30"/>
      <point x="157" y="30" type="curve" smooth="yes"/>
      <point x="143" y="30" type="line"/>
    </contour>
  </outline>
</glyph>
<glyph name="zero.den" format="1">
  <advance width="328"/>
  <outline>
    <contour>
      <point x="3" y="139" type="curve" smooth="yes"/>
      <point x="3" y="54"/>
      <point x="45" y="-6"/>
      <point x="118" y="-6" type="curve" smooth="yes"/>
      <point x="222" y="-6"/>
      <point x="270" y="113"/>
      <point x="270" y="202" type="curve" smooth="yes"/>
      <point x="270" y="287"/>
      <point x="228" y="347"/>
      <point x="155" y="347" type="curve"/>
      <point x="51" y="347"/>
      <point x="3" y="228"/>
    </contour>
    <contour>
      <point x="52" y="199" type="curve" smooth="yes"/>
      <point x="66" y="262"/>
      <point x="98" y="320"/>
      <point x="155" y="320" type="curve"/>
      <point x="201" y="320"/>
      <point x="229" y="282"/>
      <point x="229" y="213" type="curve" smooth="yes"/>
      <point x="229" y="189"/>
      <point x="226" y="165"/>
      <point x="221" y="142" type="curve" smooth="yes"/>
      <point x="207" y="79"/>
      <point x="175" y="21"/>
      <point x="118" y="21" type="curve"/>
      <point x="72" y="21"/>
      <point x="44" y="59"/>
      <point x="44" y="128" type="curve" smooth="yes"/>
      <point x="44" y="152"/>
      <point x="47" y="176"/>
    </contour>
  </outline>
</glyph>
<glyph name="zero.sub" format="1">
  <advance width="328"/>
  <outline>
    <contour>
      <point x="-17.0" y="39.0" type="curve" smooth="yes"/>
      <point x="-17.0" y="-46.0"/>
      <point x="25.0" y="-106.0"/>
      <point x="98.0" y="-106.0" type="curve" smooth="yes"/>
      <point x="202.0" y="-106.0"/>
      <point x="250.0" y="13.0"/>
      <point x="250.0" y="102.0" type="curve" smooth="yes"/>
      <point x="250.0" y="187.0"/>
      <point x="208.0" y="247.0"/>
      <point x="135.0" y="247.0" type="curve"/>
      <point x="31.0" y="247.0"/>
      <point x="-17.0" y="128.0"/>
    </contour>
    <contour>
      <point x="32.0" y="99.0" type="curve" smooth="yes"/>
      <point x="46.0" y="162.0"/>
      <point x="78.0" y="220.0"/>
      <point x="135.0" y="220.0" type="curve"/>
      <point x="181.0" y="220.0"/>
      <point x="209.0" y="182.0"/>
      <point x="209.0" y="113.0" type="curve" smooth="yes"/>
      <point x="209.0" y="89.0"/>
      <point x="206.0" y="65.0"/>
      <point x="201.0" y="42.0" type="curve" smooth="yes"/>
      <point x="187.0" y="-21.0"/>
      <point x="155.0" y="-79.0"/>
      <point x="98.0" y="-79.0" type="curve"/>
      <point x="52.0" y="-79.0"/>
      <point x="24.0" y="-41.0"/>
      <point x="24.0" y="28.0" type="curve" smooth="yes"/>
      <point x="24.0" y="52.0"/>
      <point x="27.0" y="76.0"/>
    </contour>
  </outline>
</glyph>
